<?xml version="1.0" encoding="utf-8"?>
<svg viewBox="0 0 500 500" xmlns="http://www.w3.org/2000/svg">
  <circle cx="443.948" cy="240.975" r="10" fill="#e6e6e6" style="" transform="matrix(0.21674399077892303, 0, 0, 0.20548300445079803, 25.81332015991211, 89.53236389160158)"/>
  <path d="M 121.64 139.093 C 122.554 139.799 122.832 140.912 122.662 141.986 C 122.454 143.165 121.808 144.235 120.843 145.003 C 119.757 145.918 118.433 146.536 117.155 147.169 C 115.981 147.737 114.852 148.386 113.779 149.112 C 109.669 151.944 106.565 155.975 104.788 160.475 C 103.014 164.967 102.538 170.065 103.886 174.72 C 104.553 177.024 105.902 179.509 108.415 180.376 C 110.419 181.066 113.154 180.621 114.174 178.664 C 115.27 176.561 113.741 174.197 111.772 173.153 C 109.219 171.8 106.17 172.789 103.874 174.159 C 101.346 175.666 99.313 177.831 96.674 179.182 C 95.486 179.81 94.164 180.176 92.807 180.252 C 91.56 180.299 90.316 180.116 89.142 179.715 C 86.706 178.874 84.61 177.331 83.146 175.303 C 81.47 172.993 80.72 170.161 80.583 167.387 C 80.276 161.18 82.863 155.373 84.938 149.617 C 86.053 146.62 86.889 143.535 87.435 140.4 C 87.954 137.248 88.139 134.054 87.987 130.868 C 87.849 128.05 87.556 125.103 86.244 122.529 C 85.09 120.266 82.982 118.414 80.317 117.947 C 79.115 117.724 77.87 117.859 76.754 118.335 C 76.373 118.5 76.703 119.031 77.082 118.867 C 79.44 117.847 82.228 118.84 83.971 120.487 C 86.006 122.41 86.752 125.251 87.084 127.872 C 87.829 134.083 87.242 140.373 85.357 146.364 C 83.548 152.189 80.702 157.773 80.046 163.876 C 79.746 166.661 79.9 169.54 80.839 172.212 C 81.645 174.591 83.155 176.699 85.191 178.287 C 87.107 179.756 89.465 180.756 91.947 180.868 C 94.733 180.993 97.176 179.815 99.338 178.249 C 101.653 176.571 103.783 174.501 106.588 173.561 C 107.866 173.132 109.322 172.932 110.634 173.345 C 111.761 173.709 112.716 174.437 113.334 175.402 C 113.904 176.3 114.114 177.424 113.594 178.39 C 113.104 179.297 112.15 179.822 111.116 180.002 C 110.022 180.186 108.894 180.004 107.925 179.488 C 106.793 178.875 105.964 177.846 105.383 176.759 C 104.226 174.591 103.837 172.011 103.778 169.605 C 103.727 167.254 104.044 164.91 104.721 162.649 C 106.067 158.074 108.784 153.967 112.543 150.827 C 113.49 150.045 114.503 149.338 115.571 148.713 C 116.738 148.032 117.982 147.487 119.171 146.845 C 120.341 146.212 121.494 145.456 122.299 144.415 C 122.986 143.523 123.356 142.447 123.358 141.343 C 123.383 140.314 122.922 139.329 122.1 138.657 C 121.779 138.408 121.316 138.842 121.64 139.093 Z" fill="#ccc" style=""/>
  <path d="M 44.75 175.008 C 47.63 176.773 50.961 177.763 54.389 177.872 C 54.327 178.01 54.259 178.145 54.183 178.275 C 53.784 178.974 53.22 179.575 52.535 180.032 C 49.129 182.305 44.404 180.23 44.031 176.296 C 44.016 176.143 44.009 175.99 44.009 175.836 L 44.009 175.008 L 44.75 175.008 Z" style="fill: rgb(242, 169, 0);"/>
  <path d="M 64.965 175.251 L 64.965 175.836 C 64.967 179.785 60.46 182.254 56.852 180.281 C 55.99 179.809 55.282 179.121 54.805 178.292 C 54.726 178.158 54.654 178.02 54.59 177.879 C 54.748 177.883 54.905 177.885 55.063 177.885 C 58.557 177.889 61.984 176.977 64.965 175.251 Z" style="fill: rgb(242, 169, 0);"/>
  <path d="M 72.257 113.322 C 72.095 113.3 71.93 113.285 71.765 113.275 C 73.637 117.365 73.766 121.983 72.127 126.161 C 72.292 126.142 72.454 126.118 72.617 126.089 C 77.777 125.141 79.92 119.253 76.474 115.49 C 75.391 114.308 73.893 113.538 72.257 113.322 Z" style="fill: rgb(242, 169, 0);"/>
  <path d="M 38.36 113.275 C 38.196 113.285 38.031 113.3 37.868 113.322 C 32.662 114.008 30.191 119.779 33.42 123.711 C 34.435 124.946 35.887 125.791 37.508 126.089 C 37.671 126.118 37.834 126.142 37.999 126.161 C 36.359 121.983 36.489 117.365 38.36 113.275 Z" style="fill: rgb(242, 169, 0);"/>
  <path d="M 72.257 113.322 C 66.717 100.774 48.926 98.618 40.234 109.441 C 31.541 120.264 38.467 135.949 52.7 137.674 C 63.842 139.024 73.704 130.794 73.703 120.145 C 73.702 117.802 73.211 115.483 72.257 113.322 Z M 72.127 126.161 C 67.242 138.611 49.971 141.379 41.041 131.142 C 32.11 120.906 38.217 105.343 52.033 103.128 C 63.141 101.349 73.269 109.465 73.269 120.145 C 73.268 122.199 72.882 124.236 72.127 126.161 Z" style="fill: rgb(1, 33, 105);"/>
  <path d="M 64.599 116.137 L 45.526 116.137 C 42.606 116.137 40.781 119.134 42.241 121.531 C 42.919 122.644 44.171 123.329 45.526 123.329 L 64.599 123.329 C 67.519 123.329 69.345 120.333 67.884 117.935 C 67.207 116.823 65.955 116.137 64.599 116.137 Z" style="paint-order: fill; fill-rule: evenodd; fill: rgb(1, 33, 105);"/>
  <path d="M 55.063 141.309 C 40.047 141.316 30.669 156.73 38.183 169.056 C 41.511 174.513 47.541 177.988 54.183 178.275 C 54.389 178.286 54.597 178.292 54.805 178.292 C 54.891 178.296 54.976 178.296 55.063 178.296 C 70.079 178.296 79.465 162.885 71.956 150.556 C 68.472 144.834 62.032 141.309 55.063 141.309 Z M 64.965 175.251 C 61.984 176.977 58.557 177.889 55.063 177.885 C 54.905 177.885 54.748 177.883 54.59 177.879 C 54.523 177.879 54.456 177.877 54.389 177.872 C 39.706 177.389 31.082 162.018 38.865 150.205 C 46.649 138.393 65.002 138.997 71.901 151.294 C 76.651 159.76 73.609 170.269 64.965 175.251 Z" style="fill: rgb(1, 33, 105);"/>
  <path d="M 68.754 155.248 L 60.229 155.248 C 58.504 155.248 57.427 153.478 58.289 152.062 C 58.689 151.405 59.428 151.001 60.229 151.001 L 68.754 151.001 C 70.478 151.001 71.556 152.771 70.693 154.186 C 70.293 154.843 69.554 155.248 68.754 155.248 Z" fill="#3f3d56" style=""/>
  <circle cx="161.404" cy="309.475" r="5.244" fill="#f2f2f2" style="" transform="matrix(0.21674399077892303, 0, 0, 0.20548300445079803, 25.81332015991211, 89.53236389160158)"/>
  <circle cx="178.448" cy="309.475" r="5.244" fill="#f2f2f2" style="" transform="matrix(0.21674399077892303, 0, 0, 0.20548300445079803, 25.81332015991211, 89.53236389160158)"/>
  <circle cx="195.493" cy="309.475" r="5.244" fill="#6c63ff" style="" transform="matrix(0.21674399077892303, 0, 0, 0.20548300445079803, 25.81332015991211, 89.53236389160158)"/>
  <path d="M 39.635 164.882 C 43.704 168.197 47.437 171.903 50.78 175.949 C 54.123 179.991 57.066 184.347 59.569 188.957 C 60.968 191.543 62.224 194.203 63.332 196.926 C 63.558 197.48 62.659 197.721 62.435 197.173 C 60.472 192.373 58.042 187.777 55.182 183.45 C 52.336 179.139 49.078 175.114 45.454 171.433 C 43.405 169.351 41.243 167.384 38.977 165.54 C 38.513 165.162 39.175 164.508 39.635 164.882 Z" fill="#fff" style=""/>
  <circle cx="80.36" cy="-16.015" r="13.631" style="opacity: 0.7; fill: rgb(167, 168, 170);" transform="matrix(0.17984502017498016, 0, 0, 0.19715899229049683, 56.66108703613281, 64.60346984863281)"/>
  <circle cx="121.252" cy="-16.015" r="13.631" style="opacity: 0.7; fill: rgb(167, 168, 170);" transform="matrix(0.17984502017498016, 0, 0, 0.19715899229049683, 56.66108703613281, 64.60346984863281)"/>
  <circle cx="162.144" cy="-16.015" r="13.631" style="opacity: 0.7; fill: rgb(167, 168, 170);" transform="matrix(0.17984502017498016, 0, 0, 0.19715899229049683, 56.66108703613281, 64.60346984863281)"/>
  <circle cx="203.035" cy="-16.015" r="13.631" style="opacity: 0.7; fill: rgb(167, 168, 170);" transform="matrix(0.17984502017498016, 0, 0, 0.19715899229049683, 56.66108703613281, 64.60346984863281)"/>
  <circle cx="243.927" cy="-16.015" r="13.631" style="opacity: 0.7; fill: rgb(167, 168, 170);" transform="matrix(0.17984502017498016, 0, 0, 0.19715899229049683, 56.66108703613281, 64.60346984863281)"/>
  <circle cx="284.819" cy="-16.015" r="13.631" style="opacity: 0.7; fill: rgb(167, 168, 170);" transform="matrix(0.17984502017498016, 0, 0, 0.19715899229049683, 56.66108703613281, 64.60346984863281)"/>
  <circle cx="325.71" cy="-16.015" r="13.631" style="opacity: 0.7; fill: rgb(167, 168, 170);" transform="matrix(0.17984502017498016, 0, 0, 0.19715899229049683, 56.66108703613281, 64.60346984863281)"/>
  <path d="M 120.904 64.718 L 65.449 64.718 C 64.898 64.718 64.452 64.228 64.451 63.624 L 64.451 59.267 C 64.452 58.663 64.898 58.174 65.449 58.173 L 120.904 58.173 C 121.454 58.174 121.901 58.663 121.901 59.267 L 121.901 63.624 C 121.901 64.228 121.454 64.718 120.904 64.718 Z M 65.449 58.611 C 65.118 58.611 64.851 58.904 64.85 59.267 L 64.85 63.624 C 64.851 63.987 65.118 64.28 65.449 64.281 L 120.904 64.281 C 121.234 64.28 121.502 63.987 121.502 63.624 L 121.502 59.267 C 121.502 58.904 121.234 58.611 120.904 58.611 L 65.449 58.611 Z" style="opacity: 0.7; fill: rgb(167, 168, 170);"/>
  <path d="M 77.317 40.244 C 77.633 40.244 77.889 40.525 77.89 40.872 L 77.89 54.488 C 77.889 54.835 77.633 55.116 77.317 55.116 L 65.15 55.116 C 64.833 55.116 64.577 54.835 64.576 54.488 L 64.576 40.872 C 64.577 40.525 64.833 40.244 65.15 40.244 L 77.317 40.244 M 77.317 39.615 L 65.15 39.615 C 64.516 39.615 64.003 40.178 64.003 40.872 L 64.003 54.488 C 64.003 55.182 64.516 55.744 65.15 55.744 L 77.317 55.744 C 77.95 55.744 78.463 55.182 78.463 54.488 L 78.463 40.872 C 78.463 40.178 77.95 39.615 77.317 39.615 Z" style="opacity: 0.7; fill: rgb(46, 52, 59);"/>
  <path d="M 75.419 43.822 L 67.301 43.822 C 67.08 43.824 66.941 43.563 67.05 43.353 C 67.102 43.254 67.198 43.193 67.301 43.194 L 75.419 43.194 C 75.64 43.193 75.779 43.453 75.669 43.664 C 75.618 43.762 75.522 43.823 75.419 43.822 Z" style="opacity: 0.7; fill: rgb(0, 108, 161);"/>
  <path d="M 75.419 46.047 L 67.301 46.047 C 67.08 46.049 66.941 45.788 67.05 45.578 C 67.102 45.479 67.198 45.418 67.301 45.419 L 75.419 45.419 C 75.64 45.417 75.779 45.678 75.669 45.889 C 75.618 45.987 75.522 46.048 75.419 46.047 Z" style="opacity: 0.7; fill: rgb(0, 108, 161);"/>
  <path d="M 75.419 48.272 L 67.301 48.272 C 67.08 48.274 66.941 48.012 67.05 47.803 C 67.102 47.703 67.198 47.643 67.301 47.644 L 75.419 47.644 C 75.64 47.642 75.779 47.903 75.669 48.113 C 75.618 48.212 75.522 48.273 75.419 48.272 Z" style="opacity: 0.7; fill: rgb(0, 108, 161);"/>
  <path d="M 75.419 50.497 L 67.301 50.497 C 67.08 50.498 66.941 50.237 67.05 50.028 C 67.102 49.928 67.198 49.868 67.301 49.869 L 75.419 49.869 C 75.64 49.867 75.779 50.128 75.669 50.338 C 75.618 50.437 75.522 50.498 75.419 50.497 Z" style="opacity: 0.7; fill: rgb(0, 108, 161);"/>
  <path d="M 75.419 52.722 L 67.301 52.722 C 67.08 52.722 66.943 52.46 67.053 52.251 C 67.104 52.153 67.199 52.093 67.301 52.093 L 75.419 52.093 C 75.64 52.093 75.777 52.355 75.667 52.565 C 75.616 52.662 75.521 52.722 75.419 52.722 Z" style="opacity: 0.7; fill: rgb(0, 108, 161);"/>
  <path d="M 118.872 40.244 C 119.188 40.244 119.444 40.525 119.445 40.872 L 119.445 54.488 C 119.444 54.835 119.188 55.116 118.872 55.116 L 106.705 55.116 C 106.388 55.116 106.132 54.835 106.131 54.488 L 106.131 40.872 C 106.132 40.525 106.388 40.244 106.705 40.244 L 118.872 40.244 M 118.872 39.615 L 106.705 39.615 C 106.072 39.615 105.558 40.178 105.558 40.872 L 105.558 54.488 C 105.558 55.182 106.072 55.744 106.705 55.744 L 118.872 55.744 C 119.505 55.744 120.018 55.182 120.018 54.488 L 120.018 40.872 C 120.018 40.178 119.505 39.615 118.872 39.615 Z" style="opacity: 0.7; fill: rgb(46, 52, 59);"/>
  <path d="M 116.974 43.822 L 108.856 43.822 C 108.636 43.824 108.496 43.563 108.606 43.353 C 108.657 43.254 108.753 43.193 108.856 43.194 L 116.974 43.194 C 117.195 43.196 117.331 43.458 117.22 43.667 C 117.168 43.762 117.075 43.822 116.974 43.822 Z" style="opacity: 0.7; fill: rgb(0, 108, 161);"/>
  <path d="M 116.974 46.047 L 108.856 46.047 C 108.636 46.049 108.496 45.788 108.606 45.578 C 108.657 45.479 108.753 45.418 108.856 45.419 L 116.974 45.419 C 117.195 45.42 117.331 45.683 117.22 45.892 C 117.168 45.987 117.075 46.047 116.974 46.047 Z" style="opacity: 0.7; fill: rgb(0, 108, 161);"/>
  <path d="M 116.974 48.272 L 108.856 48.272 C 108.636 48.274 108.496 48.012 108.606 47.803 C 108.657 47.703 108.753 47.643 108.856 47.644 L 116.974 47.644 C 117.195 47.645 117.331 47.908 117.22 48.116 C 117.168 48.212 117.075 48.271 116.974 48.272 Z" style="opacity: 0.7; fill: rgb(0, 108, 161);"/>
  <path d="M 116.974 50.497 L 108.856 50.497 C 108.636 50.498 108.496 50.237 108.606 50.028 C 108.657 49.928 108.753 49.868 108.856 49.869 L 116.974 49.869 C 117.195 49.87 117.331 50.132 117.22 50.341 C 117.168 50.437 117.075 50.496 116.974 50.497 Z" style="opacity: 0.7; fill: rgb(0, 108, 161);"/>
  <path d="M 116.974 52.722 L 108.856 52.722 C 108.636 52.722 108.498 52.46 108.608 52.251 C 108.659 52.153 108.754 52.093 108.856 52.093 L 116.974 52.093 C 117.195 52.093 117.332 52.355 117.222 52.565 C 117.171 52.662 117.076 52.722 116.974 52.722 Z" style="opacity: 0.7; fill: rgb(0, 108, 161);"/>
  <path d="M 160.225 66.424 C 160.542 66.425 160.798 66.706 160.798 67.053 L 160.798 80.669 C 160.798 81.016 160.542 81.297 160.225 81.297 L 148.058 81.297 C 147.742 81.297 147.485 81.016 147.485 80.669 L 147.485 67.053 C 147.485 66.706 147.742 66.425 148.058 66.424 L 160.225 66.424 M 160.225 65.796 L 148.058 65.796 C 147.425 65.796 146.912 66.359 146.912 67.053 L 146.912 80.669 C 146.912 81.363 147.425 81.926 148.058 81.926 L 160.225 81.926 C 160.858 81.926 161.371 81.363 161.371 80.669 L 161.371 67.053 C 161.371 66.359 160.858 65.796 160.225 65.796 Z" style="opacity: 0.7; fill: rgb(1, 33, 105);"/>
  <path d="M 158.328 70.003 L 150.21 70.003 C 149.989 70.005 149.85 69.744 149.959 69.534 C 150.01 69.435 150.106 69.374 150.21 69.375 L 158.328 69.375 C 158.548 69.376 158.685 69.639 158.573 69.848 C 158.522 69.944 158.429 70.002 158.328 70.003 Z" style="opacity: 0.7; fill: rgb(0, 108, 161);"/>
  <path d="M 158.328 72.228 L 150.21 72.228 C 149.989 72.228 149.851 71.966 149.961 71.757 C 150.013 71.66 150.107 71.6 150.21 71.6 L 158.328 71.6 C 158.548 71.6 158.686 71.862 158.576 72.071 C 158.525 72.169 158.43 72.228 158.328 72.228 Z" style="opacity: 0.7; fill: rgb(0, 108, 161);"/>
  <path d="M 158.328 74.453 L 150.21 74.453 C 149.989 74.454 149.85 74.193 149.96 73.983 C 150.011 73.885 150.106 73.824 150.21 73.825 L 158.328 73.825 C 158.548 73.826 158.685 74.089 158.573 74.298 C 158.522 74.393 158.429 74.452 158.328 74.453 Z" style="opacity: 0.7; fill: rgb(0, 108, 161);"/>
  <path d="M 158.328 76.678 L 150.21 76.678 C 149.989 76.679 149.85 76.419 149.959 76.208 C 150.01 76.109 150.106 76.049 150.21 76.05 L 158.328 76.05 C 158.548 76.051 158.685 76.314 158.573 76.522 C 158.522 76.618 158.429 76.677 158.328 76.678 Z" style="opacity: 0.7; fill: rgb(0, 108, 161);"/>
  <path d="M 158.328 78.903 L 150.21 78.903 C 149.989 78.904 149.85 78.643 149.959 78.433 C 150.01 78.334 150.106 78.274 150.21 78.274 L 158.328 78.274 C 158.548 78.276 158.685 78.539 158.573 78.747 C 158.522 78.843 158.429 78.902 158.328 78.903 Z" style="opacity: 0.7; fill: rgb(0, 108, 161);"/>
  <path d="M 98.253 55.744 L 85.768 55.744 C 85.065 55.744 84.495 55.119 84.494 54.348 L 84.494 44.554 C 84.495 43.783 85.065 43.159 85.768 43.158 L 98.253 43.158 C 98.956 43.159 99.526 43.783 99.527 44.554 L 99.527 54.348 C 99.526 55.119 98.956 55.744 98.253 55.744 Z M 85.768 43.787 C 85.381 43.787 85.068 44.13 85.068 44.554 L 85.068 54.348 C 85.068 54.772 85.381 55.116 85.768 55.116 L 98.253 55.116 C 98.64 55.116 98.954 54.772 98.954 54.348 L 98.954 44.554 C 98.954 44.13 98.64 43.787 98.253 43.787 L 85.768 43.787 Z" style="opacity: 0.7; fill: rgb(46, 52, 59);"/>
  <path d="M 96.07 47.541 L 87.952 47.541 C 87.731 47.539 87.595 47.277 87.706 47.068 C 87.757 46.972 87.851 46.913 87.952 46.913 L 96.07 46.913 C 96.29 46.911 96.43 47.172 96.32 47.382 C 96.269 47.481 96.173 47.542 96.07 47.541 Z" style="opacity: 0.7; fill: rgb(0, 108, 161);"/>
  <path d="M 96.07 49.766 L 87.952 49.766 C 87.731 49.764 87.595 49.501 87.706 49.293 C 87.757 49.197 87.851 49.138 87.952 49.137 L 96.07 49.137 C 96.29 49.136 96.43 49.397 96.32 49.607 C 96.269 49.706 96.173 49.766 96.07 49.766 Z" style="opacity: 0.7; fill: rgb(0, 108, 161);"/>
  <path d="M 96.07 51.99 L 87.952 51.99 C 87.731 51.989 87.595 51.726 87.706 51.518 C 87.757 51.422 87.851 51.363 87.952 51.362 L 96.07 51.362 C 96.29 51.361 96.43 51.622 96.32 51.831 C 96.269 51.93 96.173 51.991 96.07 51.99 Z" style="opacity: 0.7; fill: rgb(0, 108, 161);"/>
  <path d="M 139.682 61.172 L 127.691 57.359 C 127.016 57.144 126.628 56.37 126.822 55.63 L 129.311 46.223 C 129.507 45.483 130.213 45.057 130.889 45.271 L 142.88 49.083 C 143.555 49.299 143.944 50.073 143.749 50.813 L 141.26 60.22 C 141.064 60.96 140.358 61.386 139.682 61.172 Z M 130.729 45.874 C 130.357 45.757 129.969 45.991 129.861 46.398 L 127.373 55.805 C 127.266 56.212 127.479 56.637 127.85 56.756 L 139.842 60.568 C 140.214 60.686 140.601 60.451 140.71 60.045 L 143.198 50.638 C 143.305 50.231 143.092 49.805 142.72 49.687 L 130.729 45.874 Z" style="opacity: 0.7; fill: rgb(46, 52, 59);"/>
  <path d="M 139.669 52.626 L 131.873 50.147 C 131.661 50.079 131.596 49.785 131.755 49.618 C 131.829 49.541 131.934 49.513 132.032 49.544 L 139.829 52.022 C 140.041 52.09 140.107 52.383 139.947 52.551 C 139.874 52.628 139.767 52.657 139.669 52.626 Z" style="opacity: 0.7; fill: rgb(0, 108, 161);"/>
  <path d="M 139.104 54.763 L 131.308 52.284 C 131.095 52.216 131.029 51.923 131.189 51.755 C 131.263 51.678 131.369 51.649 131.467 51.68 L 139.264 54.159 C 139.475 54.227 139.541 54.521 139.381 54.688 C 139.307 54.765 139.202 54.794 139.104 54.763 Z" style="opacity: 0.7; fill: rgb(0, 108, 161);"/>
  <path d="M 138.539 56.899 L 130.742 54.42 C 130.531 54.353 130.465 54.059 130.625 53.892 C 130.698 53.815 130.804 53.786 130.902 53.817 L 138.698 56.296 C 138.91 56.363 138.976 56.657 138.817 56.824 C 138.743 56.902 138.637 56.931 138.539 56.899 Z" style="opacity: 0.7; fill: rgb(0, 108, 161);"/>
  <rect x="92.078" y="159.443" width="125.768" height="0.591" fill="#e6e6e6" style="opacity: 0.7;"/>
  <polygon points="165.102 158.518 144.65 158.518 145.343 148.638 164.408 148.638 165.102 158.518" fill="#e6e6e6" style="opacity: 0.7;"/>
  <rect x="143.61" y="157.379" width="22.878" height="2.28" fill="#e6e6e6" style="opacity: 0.7;"/>
  <path d="M 194.046 84.987 L 115.878 84.987 C 114.73 84.987 113.799 86.007 113.799 87.267 L 113.799 139.518 L 196.126 139.518 L 196.126 87.267 C 196.126 86.007 195.195 84.987 194.046 84.987 Z" fill="#3f3d56" style="opacity: 0.7;"/>
  <path d="M 113.799 139.518 L 113.799 148.068 C 113.799 149.328 114.73 150.348 115.878 150.348 L 194.046 150.348 C 195.195 150.348 196.126 149.328 196.126 148.068 L 196.126 139.518 L 113.799 139.518 Z" fill="#e6e6e6" style="opacity: 0.7;"/>
  <rect x="117.959" y="89.737" width="74.181" height="45.601" fill="#e6e6e6" style="opacity: 0.7;"/>
  <circle cx="547.068" cy="406.956" r="11.565" fill="#3f3d56" style="opacity: 0.7;" transform="matrix(0.17984502017498016, 0, 0, 0.19715899229049683, 56.66108703613281, 64.60346984863281)"/>
  <circle cx="353.694" cy="135.054" r="2.195" fill="#fff" style="opacity: 0.7;" transform="matrix(0.17984502017498016, 0, 0, 0.19715899229049683, 56.66108703613281, 64.60346984863281)"/>
  <circle cx="362.025" cy="135.054" r="2.195" fill="#fff" style="opacity: 0.7;" transform="matrix(0.17984502017498016, 0, 0, 0.19715899229049683, 56.66108703613281, 64.60346984863281)"/>
  <circle cx="370.355" cy="135.054" r="2.195" fill="#fff" style="opacity: 0.7;" transform="matrix(0.17984502017498016, 0, 0, 0.19715899229049683, 56.66108703613281, 64.60346984863281)"/>
  <rect x="119.877" y="92.7" width="70.125" height="38.297" fill="#fff" style="opacity: 0.7;"/>
  <path d="M 124.538 98.526 C 124.401 98.526 124.291 98.647 124.29 98.797 L 124.29 112.535 C 124.291 112.685 124.401 112.806 124.538 112.807 L 139.009 112.807 C 139.146 112.806 139.257 112.685 139.257 112.535 L 139.257 98.797 C 139.257 98.647 139.146 98.526 139.009 98.526 L 124.538 98.526 Z" fill="#e6e6e6" style="opacity: 0.7;"/>
  <path d="M 147.774 98.57 C 147.636 98.57 147.526 98.691 147.525 98.842 L 147.525 112.535 C 147.526 112.685 147.636 112.807 147.774 112.807 L 162.198 112.807 C 162.335 112.806 162.446 112.685 162.446 112.535 L 162.446 98.842 C 162.446 98.691 162.335 98.57 162.198 98.57 L 147.774 98.57 Z" fill="#e6e6e6" style="opacity: 0.7;"/>
  <path d="M 170.765 98.427 C 170.628 98.427 170.517 98.548 170.517 98.698 L 170.517 112.535 C 170.517 112.685 170.628 112.806 170.765 112.807 L 185.34 112.807 C 185.477 112.806 185.588 112.685 185.588 112.535 L 185.588 98.698 C 185.588 98.548 185.477 98.427 185.34 98.427 L 170.765 98.427 Z" fill="#e6e6e6" style="opacity: 0.7;"/>
  <path d="M 124.803 119.606 C 124.408 119.607 124.162 120.076 124.36 120.45 C 124.452 120.623 124.62 120.73 124.803 120.73 L 138.409 120.73 C 138.803 120.729 139.049 120.26 138.851 119.886 C 138.76 119.714 138.591 119.607 138.409 119.606 L 124.803 119.606 Z" fill="#e6e6e6" style="opacity: 0.7;"/>
  <path d="M 124.803 122.279 C 124.408 122.28 124.162 122.749 124.36 123.123 C 124.452 123.296 124.62 123.402 124.803 123.403 L 130.928 123.403 C 131.323 123.402 131.569 122.933 131.371 122.559 C 131.28 122.386 131.111 122.279 130.928 122.279 L 124.803 122.279 Z" style="opacity: 0.7; fill: rgb(0, 125, 186);"/>
  <path d="M 148.288 119.606 C 147.893 119.607 147.647 120.076 147.845 120.45 C 147.937 120.623 148.105 120.73 148.288 120.73 L 161.894 120.73 C 162.288 120.729 162.533 120.26 162.336 119.886 C 162.244 119.714 162.076 119.607 161.894 119.606 L 148.288 119.606 Z" fill="#e6e6e6" style="opacity: 0.7;"/>
  <path d="M 148.288 122.279 C 147.893 122.28 147.647 122.749 147.845 123.123 C 147.937 123.296 148.105 123.402 148.288 123.403 L 154.414 123.403 C 154.808 123.402 155.054 122.933 154.856 122.559 C 154.764 122.386 154.596 122.279 154.414 122.279 L 148.288 122.279 Z" style="opacity: 0.7; fill: rgb(0, 125, 186);"/>
  <path d="M 171.186 119.606 C 170.791 119.607 170.545 120.076 170.743 120.45 C 170.835 120.623 171.003 120.73 171.186 120.73 L 184.791 120.73 C 185.186 120.729 185.432 120.26 185.234 119.886 C 185.142 119.714 184.973 119.607 184.791 119.606 L 171.186 119.606 Z" fill="#e6e6e6" style="opacity: 0.7;"/>
  <path d="M 124.803 116.846 C 124.408 116.847 124.162 117.316 124.36 117.69 C 124.452 117.863 124.62 117.969 124.803 117.97 L 138.409 117.97 C 138.803 117.969 139.049 117.5 138.851 117.126 C 138.76 116.953 138.591 116.846 138.409 116.846 L 124.803 116.846 Z" fill="#e6e6e6" style="opacity: 0.7;"/>
  <path d="M 148.288 116.846 C 147.893 116.847 147.647 117.316 147.845 117.69 C 147.937 117.863 148.105 117.969 148.288 117.97 L 161.894 117.97 C 162.288 117.969 162.533 117.5 162.336 117.126 C 162.244 116.953 162.076 116.846 161.894 116.846 L 148.288 116.846 Z" fill="#e6e6e6" style="opacity: 0.7;"/>
  <path d="M 171.186 116.846 C 170.791 116.847 170.545 117.316 170.743 117.69 C 170.835 117.863 171.003 117.969 171.186 117.97 L 184.791 117.97 C 185.186 117.969 185.432 117.5 185.234 117.126 C 185.142 116.953 184.973 116.846 184.791 116.846 L 171.186 116.846 Z" fill="#e6e6e6" style="opacity: 0.7;"/>
  <path d="M 171.186 122.279 C 170.791 122.28 170.545 122.749 170.743 123.123 C 170.835 123.296 171.003 123.402 171.186 123.403 L 177.311 123.403 C 177.706 123.402 177.952 122.933 177.754 122.559 C 177.663 122.386 177.494 122.279 177.311 122.279 L 171.186 122.279 Z" style="opacity: 0.7; fill: rgb(0, 125, 186);"/>
  <ellipse style="fill: rgb(216, 216, 216); stroke: rgb(0, 0, 0); stroke-miterlimit: 1;" cx="49.055" cy="119.812" rx="1.966" ry="1.845"/>
  <ellipse style="fill: rgb(216, 216, 216); stroke: rgb(0, 0, 0); stroke-miterlimit: 1;" cx="62.098" cy="119.832" rx="1.966" ry="1.845"/>
</svg>