<svg width="688" height="756" xmlns="http://www.w3.org/2000/svg" xmlns:xlink="http://www.w3.org/1999/xlink" xml:space="preserve" overflow="hidden"><defs><clipPath id="clip0"><rect x="1071" y="823" width="48" height="54"/></clipPath><clipPath id="clip1"><rect x="1071" y="823" width="48" height="54"/></clipPath><clipPath id="clip2"><rect x="1071" y="823" width="48" height="54"/></clipPath></defs><g transform="translate(-705 -366)"><g><g><g><g><path d="M914.407 630.698 1268.76 630.698 1268.76 595.333C1268.76 579.773 1256.03 567.042 1240.47 567.042L1028.28 567.042 950.479 515.409C945.528 512.58 940.577 510.458 934.919 510.458L801.948 510.458C786.387 510.458 773.656 523.19 773.656 538.75L773.656 885.323C773.656 886.738 864.897 663.941 864.897 663.941 873.384 644.136 892.481 630.698 914.407 630.698Z" stroke="#000000" stroke-width="2.2978" stroke-linecap="butt" stroke-linejoin="miter" stroke-miterlimit="4" stroke-opacity="1" fill="#FFC000" fill-rule="nonzero" fill-opacity="1"/><path d="M1325.34 687.281C1325.34 672.428 1314.73 660.404 1299.88 658.99L914.407 658.99C903.798 658.99 894.603 665.355 890.359 674.55L794.875 906.542 1226.32 906.542 1322.51 700.012C1324.64 695.769 1325.34 691.525 1325.34 687.281Z" stroke="#000000" stroke-width="2.2978" stroke-linecap="butt" stroke-linejoin="miter" stroke-miterlimit="4" stroke-opacity="1" fill="#FFC000" fill-rule="nonzero" fill-opacity="1"/></g></g></g><g><g><g><path d="M1226.67 756C1226.67 776.619 1168.17 793.333 1096 793.333 1023.83 793.333 965.333 776.619 965.333 756 965.333 735.381 1023.83 718.667 1096 718.667 1168.17 718.667 1226.67 735.381 1226.67 756Z" stroke="#FFFFFF" stroke-width="2.29744" stroke-linecap="butt" stroke-linejoin="miter" stroke-miterlimit="4" stroke-opacity="1" fill="#002060" fill-rule="nonzero" fill-opacity="1"/><path d="M1189.33 849.333C1183.73 849.333 1180 845.6 1180 840 1180 834.4 1183.73 830.667 1189.33 830.667 1194.93 830.667 1198.67 834.4 1198.67 840 1198.67 845.6 1194.93 849.333 1189.33 849.333ZM1096 812C1024.13 812 965.333 795.2 965.333 774.667L965.333 849.333C965.333 869.867 1024.13 886.667 1096 886.667 1167.87 886.667 1226.67 869.867 1226.67 849.333L1226.67 774.667C1226.67 795.2 1167.87 812 1096 812Z" stroke="#FFFFFF" stroke-width="2.29744" stroke-linecap="butt" stroke-linejoin="miter" stroke-miterlimit="4" stroke-opacity="1" fill="#002060" fill-rule="nonzero" fill-opacity="1"/><path d="M1189.33 942.667C1183.73 942.667 1180 938.933 1180 933.333 1180 927.733 1183.73 924 1189.33 924 1194.93 924 1198.67 927.733 1198.67 933.333 1198.67 938.933 1194.93 942.667 1189.33 942.667ZM1096 905.333C1024.13 905.333 965.333 888.533 965.333 868L965.333 942.667C965.333 963.2 1024.13 980 1096 980 1167.87 980 1226.67 963.2 1226.67 942.667L1226.67 868C1226.67 888.533 1167.87 905.333 1096 905.333Z" stroke="#FFFFFF" stroke-width="2.29744" stroke-linecap="butt" stroke-linejoin="miter" stroke-miterlimit="4" stroke-opacity="1" fill="#002060" fill-rule="nonzero" fill-opacity="1"/><path d="M1189.33 1036C1183.73 1036 1180 1032.27 1180 1026.67 1180 1021.07 1183.73 1017.33 1189.33 1017.33 1194.93 1017.33 1198.67 1021.07 1198.67 1026.67 1198.67 1032.27 1194.93 1036 1189.33 1036ZM1096 998.667C1024.13 998.667 965.333 981.867 965.333 961.333L965.333 1036C965.333 1056.53 1024.13 1073.33 1096 1073.33 1167.87 1073.33 1226.67 1056.53 1226.67 1036L1226.67 961.333C1226.67 981.867 1167.87 998.667 1096 998.667Z" stroke="#FFFFFF" stroke-width="2.29744" stroke-linecap="butt" stroke-linejoin="miter" stroke-miterlimit="4" stroke-opacity="1" fill="#002060" fill-rule="nonzero" fill-opacity="1"/></g></g></g><g clip-path="url(#clip0)"><g clip-path="url(#clip1)"><g clip-path="url(#clip2)"><path d="M23.5635 50.5474C-1.00182 39.1835 1.94436 13.812 1.95621 1.95029L45.4256 1.99178C45.4138 13.8535 48.1466 39.2369 23.5635 50.5474ZM1.95621-0.0118558 0.0829909 1.96807C0.0829909 3.38484 0.0296396 5.16915 0.0177838 6.04648-0.148198 19.983 0.782485 41.6555 23.4568 52.1538 35.4549 46.5875 44.5305 37.0317 46.9135 22.2178 48.3007 13.6401 47.4708 5.49518 47.5063 0.0177838Z" fill="#FFFFFF" fill-rule="nonzero" fill-opacity="1" transform="matrix(1 0 0 1.01634 1071.14 824)"/><path d="M14.2804 31.1453 10.2375 35.4667C10.1071 35.609 10.0893 35.7572 10.1723 35.8461 10.2708 35.9662 10.389 36.0684 10.5221 36.1484 10.6288 36.1484 10.7058 36.2196 10.8955 36.018 10.9726 35.9291 12.8873 34.0855 15.1458 31.91 14.993 31.8275 14.8498 31.7281 14.719 31.6136 14.5623 31.4676 14.4157 31.3112 14.2804 31.1453ZM15.4422 30.6533C15.8079 30.975 16.2051 31.259 16.6278 31.501L16.2306 31.8803C16.0824 32.0463 15.5193 31.7855 14.9739 31.2876 14.4286 30.7896 14.1144 30.2798 14.2685 30.102L14.7072 29.7048C14.9161 30.0473 15.1627 30.3654 15.4422 30.6533ZM35.3008 35.443C35.5006 35.2612 35.6324 35.0165 35.6742 34.7495L36.0655 34.9392C36.1781 35.0636 36.0655 35.5319 35.7216 35.8817 35.3778 36.2314 34.8621 36.3619 34.7435 36.2374L34.5361 35.8106C34.8287 35.7906 35.1024 35.659 35.3008 35.443ZM34.702 34.8028C34.847 34.6659 34.955 34.4946 35.0162 34.3049L35.2711 34.4827C35.3541 34.5716 35.2711 34.8621 35.0103 35.1229 34.7495 35.3837 34.3819 35.4727 34.293 35.3837L34.1448 35.1051C34.3496 35.0442 34.5394 34.9412 34.702 34.8028ZM35.9173 14.9621 35.4549 15.3711C34.8206 15.6141 33.386 14.5175 32.2538 13.5216 31.495 12.8577 29.9775 11.186 30.4102 10.5102L30.5999 10.3146 30.2561 10.113C30.1066 10.0354 29.9373 10.0044 29.77 10.0241 29.5922 10.0241 29.444 10.119 29.4321 10.2672 29.4564 10.6889 29.5891 11.0973 29.8174 11.4527 30.6259 12.756 31.6739 13.8944 32.9059 14.8079 33.6865 15.4025 34.557 15.8687 35.4845 16.1891 35.6149 16.2366 36.0773 16.3314 36.2611 16.1358 36.4448 15.9402 36.2611 15.5904 36.0892 15.2525 36.0406 15.1508 35.9831 15.0536 35.9173 14.9621ZM34.5775 34.1092C33.8662 33.2734 28.2406 26.6638 27.3811 25.6679 26.5215 24.672 20.724 17.7423 18.8211 15.3711 17.3178 13.3127 16.4093 10.8805 16.1951 8.34058L16.1951 7.8782C16.1951 7.83078 16.0706 7.84264 16.0469 7.8782 15.3202 9.24417 14.3521 10.4673 13.1896 11.4883 11.9343 12.6644 10.4995 13.6329 8.9393 14.3574 8.90373 14.3574 8.88002 14.4345 8.89781 14.4463 9.39291 14.5161 9.89174 14.5556 10.3916 14.5649 12.3538 14.7309 13.1718 15.3711 14.9621 16.5152 17.0428 17.843 22.0341 22.698 22.9707 23.6109 23.9073 24.5238 33.6409 34.2812 33.8484 34.4946 33.8484 34.4946 33.9966 34.6546 34.0203 34.6665 34.1543 34.6485 34.2811 34.5953 34.3879 34.5123 34.4938 34.4295 34.5774 34.3215 34.6309 34.1982ZM33.6409 33.8306C33.6409 33.8306 28.3058 28.3829 24.8735 24.8617 18.1572 17.926 15.0806 15.786 13.4386 14.9087 12.7601 14.5851 12.0563 14.3175 11.3342 14.1084 11.1919 14.0314 11.1623 13.9188 11.429 13.6816 11.8408 13.3646 12.3013 13.1164 12.7924 12.9466 13.1728 12.9652 13.5439 13.0706 13.8773 13.2548 14.7902 13.6461 15.5549 14.1144 17.5763 16.1239 18.2521 16.7997 19.0168 17.5881 19.8763 18.4951 25.9346 24.9743 33.7654 33.718 33.7654 33.718Z" fill="#FFFFFF" fill-rule="nonzero" fill-opacity="1" transform="matrix(1 0 0 1.01634 1071.14 824)"/><path d="M15.3 6.15911C14.7861 6.2351 14.2936 6.41673 13.8535 6.69262 11.8078 7.85366 10.0078 9.40203 8.55399 11.2512 8.24153 11.6653 7.96202 12.1033 7.71815 12.5613 7.08979 13.7468 7.96119 14.0373 8.58363 13.7824 9.65581 13.32 10.6544 12.7029 11.5476 11.9507 14.0432 9.8522 15.5074 7.8782 15.6971 7.00087 15.8275 6.61556 15.7979 6.18875 15.3 6.15911ZM15.0036 7.39804C14.697 7.96967 14.3293 8.50633 13.9069 8.99858 13.3649 9.63565 12.7911 10.245 12.1878 10.8244 12.1582 10.8244 12.0337 10.8244 12.087 10.7117 12.4723 9.76921 11.8914 9.14678 11.9566 8.93337 12.0279 8.6777 12.1443 8.43679 12.3004 8.22202 13.0693 7.58062 13.9521 7.08997 14.9028 6.77561 14.9561 6.81711 15.0866 6.87046 15.1043 7.00087 15.0998 7.14089 15.0654 7.2783 15.0036 7.40397ZM22.8343 24.1622C22.4253 24.5475 16.1062 30.6118 16.1062 30.6118 16.1951 30.7007 16.4678 30.8963 16.4678 30.8963 16.4678 30.8963 22.2712 25.3241 22.7039 24.921 22.8225 24.8083 23.0774 24.5712 23.1722 24.4942ZM34.7495 16.6871 35.0162 16.6871C35.0993 16.6846 35.1814 16.6686 35.2593 16.6397 35.3126 16.5982 35.3482 16.5389 35.2593 16.533 34.7543 16.473 34.2643 16.3223 33.8128 16.0884 33.2307 16.2397 32.6617 16.4379 32.1115 16.6812 31.1986 17.0902 29.2009 18.2817 25.1166 22.0163L25.4367 22.3897C26.8114 21.099 28.2602 19.8896 29.7759 18.7678 31.0028 17.8989 32.3676 17.2435 33.8128 16.8294 34.1216 16.7613 34.4344 16.7138 34.7495 16.6871ZM30.7718 13.7113C30.0039 12.9939 29.4325 12.0919 29.112 11.0911L29.112 11.0319C29.0978 11.0138 29.0718 11.0108 29.0537 11.0249 29.0512 11.0269 29.0488 11.0293 29.0468 11.0319 29.0446 11.0575 29.0446 11.0833 29.0468 11.1089 28.946 12.2945 29.0468 12.8221 28.5489 14.0729 28.0012 15.3649 27.2574 16.5646 26.3437 17.6296 25.7509 18.3232 24.7431 19.4614 23.8124 20.5225L24.4645 21.2931C24.5297 21.2219 24.7372 21.0026 24.9684 20.7477 27.034 18.5031 29.3 16.4515 31.7381 14.6182 31.3995 14.334 31.0769 14.0312 30.7718 13.7113ZM21.5302 22.9766C20.2142 24.4586 18.8923 25.9406 18.507 26.3496 18.1216 26.7586 15.3059 29.8056 15.3059 29.8056 15.3514 29.886 15.4049 29.9615 15.4659 30.0308 15.5549 30.1316 15.709 30.268 15.709 30.268 15.709 30.268 21.7377 24.0733 22.1941 23.5931ZM31.8626 9.62101 31.8626 9.48467C31.5484 9.40168 31.3053 9.41354 31.1809 9.54988 30.7837 9.97669 31.661 11.429 33.1371 12.7984 34.6131 14.1677 36.1307 14.9265 36.5278 14.4997 36.6879 14.3278 36.6345 13.9899 36.4271 13.5571 34.293 13.812 31.8626 10.9963 31.8626 9.62101Z" fill="#FFFFFF" fill-rule="nonzero" fill-opacity="1" transform="matrix(1 0 0 1.01634 1071.14 824)"/><path d="M38.5196 10.1723C38.3121 10.4094 37.9268 10.9666 37.7431 11.1563 37.9742 10.9548 38.1047 10.4568 37.8557 9.15271 37.7754 8.63532 37.6382 8.12836 37.4467 7.64109 37.3815 7.46918 37.2748 7.51067 37.1562 7.64109 37.005 7.84548 36.8702 8.06155 36.7531 8.28723 36.7531 8.39986 36.7531 8.28723 36.3263 6.97123 36.1212 6.41905 35.9973 5.83994 35.9588 5.25214L35.9588 4.8194C35.9588 4.70084 35.9054 4.71862 35.6386 4.8194 34.8706 5.30966 34.266 6.01749 33.9018 6.85267 33.6291 7.54031 33.6113 8.10347 33.5698 7.75965 33.5046 7.10165 33.5165 7.10165 33.4512 7.10165 32.4019 7.46544 31.717 8.47603 31.7677 9.58544 31.7677 11.0911 34.5953 14.2804 36.8954 13.5571 36.8954 13.5571 38.6382 13.2252 38.6737 11.6543 38.7093 10.0834 38.5196 10.1723 38.5196 10.1723ZM37.9268 12.1226C37.7094 12.4696 37.3937 12.744 37.0199 12.911 36.5001 13.1327 35.9246 13.1886 35.3719 13.0711 34.2455 12.6363 33.2921 11.8453 32.6569 10.8185 31.3231 8.65476 33.1134 7.73001 33.2497 7.70037 33.1463 8.08669 33.122 8.49002 33.1786 8.88595 33.3062 9.23149 33.4608 9.56647 33.6409 9.88777 33.7551 10.2159 33.69 10.5799 33.469 10.8481 33.4097 10.9311 33.5639 10.8837 33.5994 10.8481 33.6316 10.8187 33.6652 10.791 33.7002 10.7651 33.9724 10.6079 34.1294 10.3077 34.1033 9.99447 33.9492 9.33054 33.469 8.90966 34.0322 7.52846 34.3337 6.88433 34.7517 6.3015 35.2652 5.80936 35.3897 5.72637 35.4727 5.61374 35.4786 5.70266 35.4845 5.79158 35.6268 6.41401 35.6979 6.81711 36.0035 7.56954 36.1527 8.37633 36.1366 9.18827 36.0358 10.3205 34.1804 11.5594 33.9255 11.6424 33.8362 11.6727 33.7522 11.7167 33.6765 11.7728 33.6113 11.8381 33.6765 11.8499 33.7476 11.8558 34.2918 11.7756 34.8108 11.573 35.2652 11.263 35.7392 10.9262 36.142 10.4991 36.4508 10.0063 36.6767 9.51692 36.8476 9.00397 36.9606 8.47692 37.0139 8.34651 37.0673 8.35244 37.0851 8.42357 37.1028 8.49471 37.2333 9.01636 37.2866 9.24162 37.3535 9.5596 37.3912 9.88303 37.3992 10.2079 37.4707 10.8445 37.1859 11.4688 36.6582 11.8321 36.3839 12.0295 36.0591 12.1447 35.7216 12.1641L35.6031 12.1641C35.5557 12.1641 35.5142 12.1641 35.6031 12.2352L35.7216 12.2826C36.1403 12.4239 36.5992 12.3808 36.9843 12.1641 37.2485 11.994 37.493 11.7952 37.7134 11.5713 37.832 11.4587 37.992 11.2453 38.0098 11.3164 38.0751 11.5847 38.0544 11.8667 37.9505 12.1226Z" fill="#FFFFFF" fill-rule="nonzero" fill-opacity="1" transform="matrix(1 0 0 1.01634 1071.14 824)"/></g></g></g></g></g></svg>