<svg xmlns="http://www.w3.org/2000/svg" version="1.1" xmlns:xlink="http://www.w3.org/1999/xlink" xmlns:svgjs="http://svgjs.dev/svgjs" viewBox="0 0 1422 800"><defs><filter id="uuunion-blur" x="-100%" y="-100%" width="400%" height="400%" color-interpolation-filters="sRGB">
        <feGaussianBlur in="SourceGraphic" stdDeviation="7.5 0" result="blur"></feGaussianBlur>
        <feDropShadow stdDeviation="12.307692307692308" in="blur" dx="10" dy="10" flood-color="hsl(44, 100%, 35%)" flood-opacity="0.25" x="0%" y="0%" width="100%" height="100%"></feDropShadow>
      </filter><filter id="uuunion-blur2" x="-100%" y="-100%" width="400%" height="400%" color-interpolation-filters="sRGB">
        <feGaussianBlur in="SourceGraphic" stdDeviation="7.5 0" result="blur"></feGaussianBlur>
        <feDropShadow stdDeviation="12.307692307692308" in="blur" dx="-10" dy="-10" flood-color="hsl(44, 100%, 35%)" flood-opacity="0.25" x="0%" y="0%" width="100%" height="100%"></feDropShadow>
      </filter><linearGradient gradientTransform="rotate(0, 0.5, 0.5)" x1="50%" y1="0%" x2="50%" y2="100%" id="uuunion-grad"><stop stop-color="hsl(42, 100%, 47%)" offset="10%"></stop><stop stop-color="hsl(44, 100%, 35%)" offset="90%"></stop></linearGradient><linearGradient gradientTransform="rotate(135, 0.5, 0.5)" x1="50%" y1="0%" x2="50%" y2="100%" id="uuunion-grad2"><stop stop-color="hsl(42, 100%, 47%)" offset="25%"></stop><stop stop-color="hsl(44, 100%, 35%)" offset="100%"></stop></linearGradient><linearGradient gradientTransform="rotate(333, 0.5, 0.5)" x1="50%" y1="0%" x2="50%" y2="100%" id="uuunion-grad3"><stop stop-color="hsl(42, 100%, 47%)" offset="0%"></stop><stop stop-color="hsl(44, 100%, 35%)" offset="75%"></stop></linearGradient></defs><path d="M-135.02 -85.32Q-121.92 -87.54 -108.82 -88.68 -95.72 -88.58 -82.62 -87.25 -69.52 -84.87 -56.42 -81.8 -43.31 -78.47 -30.21 -75.36 -17.11 -72.91 -4.01 -71.48 9.08 -71.27 22.18 -72.31 35.28 -74.45 48.38 -77.39 61.48 -80.7 74.58 -83.91 87.69 -86.56 100.79 -88.27 113.89 -88.79 126.99 -88.05 140.09 -86.16 153.19 -83.38 166.29 -80.12 179.39 -76.84 192.49 -74.01 205.6 -72.04 218.7 -71.21 231.8 -71.64 244.9 -73.26 258 -75.85 271.1 -79.04 284.2 -82.36 297.3 -85.34 310.4 -87.56 323.51 -88.69 336.61 -88.57 349.71 -87.23 362.81 -84.85 375.91 -81.77 389.01 -78.44 402.11 -75.33 415.21 -72.89 428.31 -71.47 441.42 -71.27 454.52 -72.32 467.62 -74.47 480.72 -77.41 493.82 -80.72 506.92 -83.93 520.02 -86.58 533.12 -88.28 546.22 -88.79 559.33 -88.04 572.43 -86.14 585.53 -83.36 598.63 -80.1 611.73 -76.82 624.83 -73.99 637.93 -72.03 651.03 -71.21 664.13 -71.65 677.24 -73.28 690.34 -75.88 703.44 -79.06 716.54 -82.38 729.64 -85.36 742.74 -87.57 755.84 -88.69 768.94 -88.57 782.04 -87.22 795.15 -84.83 808.25 -81.75 821.35 -78.42 834.45 -75.31 847.55 -72.88 860.65 -71.46 873.75 -71.27 886.85 -72.33 899.95 -74.49 913.06 -77.44 926.16 -80.75 939.26 -83.96 952.36 -86.59 965.46 -88.28 978.56 -88.79 991.66 -88.03 1004.76 -86.12 1017.86 -83.34 1030.97 -80.07 1044.07 -76.79 1057.17 -73.98 1070.27 -72.02 1083.37 -71.21 1096.47 -71.66 1109.57 -73.3 1122.67 -75.9 1135.78 -79.09 1148.88 -82.41 1161.98 -85.38 1175.08 -87.58 1188.18 -88.7 1201.28 -88.56 1214.38 -87.2 1227.48 -84.81 1240.58 -81.72 1253.69 -78.39 1266.79 -75.29 1279.89 -72.86 1292.99 -71.46 1306.09 -71.28 1319.19 -72.35 1332.29 -74.51 1345.39 -77.46 1358.5 -80.78 1371.6 -83.98 1384.7 -86.61 1397.8 -88.29 1410.9 -88.79 1424 -88.02 1437.1 -86.1 1450.2 -83.31 1463.3 -80.04 1476.41 -76.77 1489.51 -73.96 1502.61 -72.01 1515.71 -71.21 1530.89 -64.91 1530.35 -42.97 1534.62 -27.8 1544.89 -12.63 1559.08 2.53 1574.31 17.7 1587.49 32.87 1595.93 48.04 1597.94 63.21 1593.09 78.38 1582.37 93.55 1567.96 108.72 1552.79 123.89 1539.93 139.06 1532 154.23 1530.61 169.41 1536.04 184.58 1547.19 199.75 1561.79 214.92 1576.88 230.09 1589.39 245.26 1596.79 260.43 1597.57 275.6 1591.57 290.77 1580.01 305.94 1565.24 321.11 1550.26 336.28 1538.11 351.45 1531.25 366.63 1531.09 381.8 1537.65 396.97 1549.6 412.14 1564.51 427.31 1579.36 442.48 1591.13 457.65 1597.43 472.82 1596.98 487.99 1589.87 503.16 1577.55 518.33 1562.51 533.5 1547.82 548.67 1536.45 563.85 1530.72 579.02 1531.78 594.19 1539.43 609.36 1552.1 624.53 1567.24 639.7 1581.75 654.87 1592.7 670.04 1597.86 685.21 1596.18 700.38 1588.01 715.55 1575 730.72 1559.8 745.89 1545.49 761.07 1534.98 776.24 1530.4 791.41 1532.68 806.58 1541.37 821.75 1554.69 836.92 1569.94 852.09 1584.02 867.26 1594.08 882.43 1598.07 897.6 1584.39 901.96 1570.71 903.16 1557.03 901.05 1543.34 895.92 1529.66 888.5 1515.98 879.87 1502.3 871.25 1488.62 863.89 1474.94 858.84 1461.26 856.82 1447.58 858.12 1433.9 862.55 1420.22 869.49 1406.54 877.93 1392.85 886.67 1379.17 894.45 1365.49 900.16 1351.81 902.98 1338.13 902.5 1324.45 898.8 1310.77 892.4 1297.09 884.23 1283.41 875.44 1269.73 867.31 1256.04 861 1242.36 857.41 1228.68 857.06 1215 859.99 1201.32 865.79 1187.64 873.63 1173.96 882.38 1160.28 890.79 1146.6 897.65 1132.92 901.98 1119.24 903.16 1105.55 901.02 1091.87 895.86 1078.19 888.44 1064.51 879.8 1050.83 871.19 1037.15 863.84 1023.47 858.81 1009.79 856.81 996.11 858.14 982.43 862.6 968.75 869.55 955.06 878 941.38 886.74 927.7 894.51 914.02 900.2 900.34 902.99 886.66 902.49 872.98 898.76 859.3 892.34 845.62 884.16 831.94 875.38 818.26 867.25 804.58 860.96 790.89 857.39 777.21 857.07 763.53 860.03 749.85 865.85 736.17 873.7 722.49 882.45 708.81 890.85 695.13 897.69 681.45 902 667.77 903.15 654.09 900.99 640.4 895.81 626.72 888.37 613.04 879.73 599.36 871.12 585.68 863.79 572 858.78 558.32 856.81 544.64 858.16 530.96 862.65 517.28 869.62 503.6 878.07 489.92 886.81 476.23 894.56 462.55 900.23 448.87 903 435.19 902.47 421.51 898.72 407.83 892.29 394.15 884.09 380.47 875.31 366.79 867.2 353.11 860.92 339.43 857.38 325.74 857.08 312.06 860.06 298.38 865.9 284.7 873.76 271.02 882.52 257.34 890.91 243.66 897.74 229.98 902.02 216.3 903.15 202.62 900.96 188.94 895.76 175.26 888.31 161.57 879.66 147.89 871.06 134.21 863.74 120.53 858.75 106.85 856.81 93.17 858.19 79.49 862.69 65.81 869.68 52.13 878.14 38.45 886.87 24.77 894.62 11.09 900.26 -2.58 903.01 -16.27 902.45 -29.95 898.68 -43.63 892.23 -57.31 884.02 -70.99 875.24 -84.67 867.14 -98.35 860.88 -112.03 857.36 -125.71 857.09 -145.59 855.6 -148.56 836.23 -144.03 821.37 -139.13 806.5 -134.85 791.64 -132.06 776.77 -131.32 761.91 -132.79 747.05 -136.17 732.18 -140.77 717.32 -145.66 702.46 -149.84 687.59 -152.47 672.73 -153.01 657.86 -151.35 643 -147.83 628.14 -143.16 613.27 -138.3 598.41 -134.22 583.54 -131.77 568.68 -131.42 553.82 -133.27 538.95 -136.92 524.09 -141.64 509.23 -146.48 494.36 -150.44 479.5 -152.72 464.63 -152.87 449.77 -150.84 434.91 -147.06 420.04 -142.29 405.18 -137.49 390.31 -133.65 375.45 -131.54 360.59 -131.6 345.72 -133.8 330.86 -137.71 316 -142.52 301.13 -147.27 286.27 -150.98 271.4 -152.91 256.54 -152.66 241.68 -150.28 226.81 -146.26 211.95 -141.41 197.08 -136.72 182.22 -133.13 167.36 -131.39 152.49 -131.84 137.63 -134.39 122.76 -138.52 107.9 -143.4 93.04 -148.03 78.17 -151.47 63.31 -153.03 48.45 -152.39 33.58 -149.67 18.72 -145.44 3.85 -140.54 -11 -135.98 -25.86 -132.68 -40.73 -131.31 -55.59 -132.14 -70.46 -135.02 -85.32" fill="url(#uuunion-grad)"></path><path d="M-135.03 -85.32Q-132.15 -70.45 -131.32 -55.59 -132.69 -40.73 -135.99 -25.86 -140.55 -11 -145.45 3.86 -149.68 18.72 -152.4 33.58 -153.04 48.45 -151.48 63.31 -148.04 78.18 -143.41 93.04 -138.53 107.9 -134.4 122.77 -131.85 137.63 -131.4 152.5 -133.14 167.36 -136.73 182.22 -141.42 197.09 -146.27 211.95 -150.29 226.81 -152.67 241.68 -152.92 256.54 -150.99 271.41 -147.28 286.27 -142.53 301.13 -137.71 316 -133.81 330.86 -131.61 345.73 -131.55 360.59 -131.19 381.44 -119.93 385.34 -111.14 384.2 -102.35 384.07 -93.57 384.96 -84.78 386.81 -75.99 389.51 -67.21 392.88 -58.42 396.71 -49.63 400.75 -40.85 404.74 -32.06 408.43 -23.27 411.57 -14.48 413.98 2.11 415.85 5.05 415.97 16.58 411.72 28.04 406 39.42 399.09 50.72 391.35 61.95 383.25 73.1 375.3 84.18 367.97 95.2 361.67 106.15 356.71 117.06 353.27 127.91 351.37 138.73 350.88 149.51 351.52 160.27 352.93 171.02 354.63 181.75 356.16 192.49 357.04 203.24 356.89 214 355.42 224.79 352.46 235.6 348.02 246.45 342.23 257.35 335.36 268.29 327.8 279.27 319.99 290.32 312.4 301.41 305.46 312.56 299.56 323.77 294.96 335.03 291.8 346.35 290.07 357.71 289.64 369.12 290.21 380.57 291.42 392.05 292.84 403.57 294 415.1 294.49 426.65 293.96 438.21 292.14 449.76 288.92 461.31 284.32 472.83 278.49 484.33 271.71 495.78 264.35 507.2 256.84 518.56 249.61 529.86 243.06 541.09 237.54 552.25 233.27 563.32 230.35 574.32 228.77 585.22 228.35 596.04 228.82 606.76 229.82 617.39 230.93 627.93 231.74 638.37 231.84 648.74 230.93 659.02 228.8 669.22 225.35 679.36 220.63 689.44 214.8 699.46 208.14 709.44 201 719.39 193.8 729.33 186.93 739.25 180.76 749.18 175.6 759.13 171.63 769.11 168.93 779.14 167.45 789.23 167.02 799.39 167.36 809.63 168.12 819.98 168.92 830.43 169.36 841 169.09 851.7 167.83 862.54 165.41 873.53 161.76 884.67 156.95 895.96 151.15 907.42 144.64 919.03 137.76 930.81 130.87 942.75 124.37 954.84 118.57 967.09 113.74 979.48 110.04 992 107.52 1004.65 106.11 1017.41 105.63 1030.28 105.81 1043.22 106.32 1056.24 106.79 1069.31 106.87 1082.41 106.24 1095.52 104.65 1108.64 101.98 1121.73 98.17 1134.77 93.31 1147.75 87.57 1160.65 81.23 1173.44 74.61 1186.11 68.05 1198.63 61.91 1211 56.46 1223.2 51.95 1235.2 48.49 1247 46.12 1258.59 44.74 1269.96 44.18 1281.09 44.18 1291.99 44.41 1302.64 44.55 1313.06 44.27 1323.24 43.3 1333.17 41.41 1342.88 38.51 1352.37 34.58 1361.65 29.7 1370.72 24.06 1379.62 17.92 1388.34 11.57 1396.92 5.35 1405.38 -0.44 1413.73 -5.54 1422 -9.77 1406.74 -27.01 1395.67 -44.26 1391.84 -61.5 1396.29 -78.74 1407.8 -95.99 1423.21 -113.23 1437.29 -138.57 1423.69 -144.81 1411.09 -142.35 1398.49 -139.61 1385.89 -136.92 1373.28 -134.6 1360.68 -132.94 1348.08 -132.15 1335.48 -132.32 1322.88 -133.42 1310.28 -135.34 1297.68 -137.82 1285.08 -140.57 1272.48 -143.25 1259.88 -145.53 1247.28 -147.13 1234.68 -147.86 1222.08 -147.63 1209.48 -146.46 1196.88 -144.5 1184.27 -141.98 1171.67 -139.23 1159.07 -136.56 1146.47 -134.32 1133.87 -132.78 1121.27 -132.11 1108.67 -132.41 1096.07 -133.65 1083.47 -135.65 1070.87 -138.19 1058.27 -140.96 1045.67 -143.6 1033.07 -145.8 1020.47 -147.29 1007.87 -147.89 995.26 -147.52 982.66 -146.23 970.06 -144.17 957.46 -141.61 944.86 -138.84 932.26 -136.22 919.66 -134.06 907.06 -132.63 894.46 -132.1 881.86 -132.53 869.26 -133.88 856.66 -135.98 844.06 -138.57 831.46 -141.34 818.86 -143.94 806.25 -146.06 793.65 -147.43 781.05 -147.89 768.45 -147.39 755.85 -145.98 743.25 -143.84 730.65 -141.23 718.05 -138.46 705.45 -135.89 692.85 -133.81 680.25 -132.5 667.65 -132.1 655.05 -132.67 642.45 -134.14 629.85 -136.32 617.24 -138.96 604.64 -141.72 592.04 -144.27 579.44 -146.3 566.84 -147.55 554.24 -147.88 541.64 -147.25 529.04 -145.72 516.44 -143.5 503.84 -140.84 491.24 -138.08 478.64 -135.56 466.04 -133.58 453.44 -132.38 440.84 -132.12 428.23 -132.82 415.63 -134.4 403.03 -136.67 390.43 -139.34 377.83 -142.09 365.23 -144.59 352.63 -146.52 340.03 -147.66 327.43 -147.85 314.83 -147.08 302.23 -145.45 289.63 -143.15 277.03 -140.46 264.43 -137.71 251.83 -135.25 239.22 -133.36 226.62 -132.29 214.02 -132.16 201.42 -132.99 188.82 -134.68 176.22 -137.02 163.62 -139.73 151.02 -142.46 138.42 -144.9 125.82 -146.73 113.22 -147.74 100.62 -147.8 88.02 -146.91 75.42 -145.16 62.82 -142.79 50.21 -140.07 37.61 -137.34 25.01 -134.94 12.41 -133.16 -0.18 -132.21 -12.78 -132.22 -25.38 -133.18 -37.98 -134.97 -50.58 -137.38 -63.18 -140.11 -75.78 -142.83 -88.38 -145.2 -100.98 -146.93 -113.58 -147.81 -126.18 -147.73 -138.78 -146.71 -154.57 -136.5 -150.2 -113.86 -142.29 -99.59 -135.03 -85.32" fill="url(#uuunion-grad2)" filter="url(#uuunion-blur)"></path><path d="M1413.89 305.53Q1422.71 305.21 1431.54 305.84 1440.36 307.37 1449.18 309.72 1458.01 312.73 1466.83 316.2 1475.66 319.91 1484.48 323.64 1493.31 327.12 1502.13 330.15 1510.96 332.53 1519.78 334.1 1528.61 334.77 1537.43 334.5 1543.04 341.11 1531.25 366.63 1531.74 384.32 1541.13 402.02 1556.87 419.72 1574.61 437.42 1589.5 455.12 1597.43 472.82 1596.23 490.52 1586.24 508.22 1570.19 525.92 1552.49 543.62 1538.01 561.32 1530.72 579.02 1532.63 596.72 1543.21 614.41 1559.55 632.11 1577.17 649.81 1591.23 667.51 1597.86 685.21 1595.24 702.91 1584.1 720.61 1567.48 738.31 1549.97 756.01 1536.36 773.71 1530.4 791.41 1533.72 809.11 1545.41 826.81 1562.26 844.5 1579.65 862.2 1592.78 879.9 1598.07 897.6 1585.52 901.71 1572.97 903.19 1560.42 901.87 1547.87 897.91 1535.32 891.78 1522.78 884.23 1510.23 876.17 1497.68 868.57 1485.13 862.35 1472.58 858.26 1460.03 856.8 1447.48 858.14 1434.93 862.12 1422.38 868.26 1409.84 875.82 1397.29 883.89 1384.74 891.48 1372.19 897.69 1359.64 901.75 1347.09 903.19 1334.54 901.83 1321.99 897.83 1309.44 891.67 1296.89 884.11 1284.35 876.04 1271.8 868.45 1259.25 862.26 1246.7 858.21 1234.15 856.8 1221.6 858.18 1209.05 862.2 1196.5 868.37 1183.95 875.95 1171.41 884.01 1158.86 891.59 1146.31 897.77 1133.76 901.8 1121.21 903.19 1108.66 901.79 1096.11 897.75 1083.56 891.56 1071.01 883.98 1058.47 875.91 1045.92 868.34 1033.37 862.18 1020.82 858.17 1008.27 856.8 995.72 858.22 983.17 862.28 970.62 868.48 958.07 876.08 945.53 884.14 932.98 891.7 920.43 897.85 907.88 901.84 895.33 903.19 882.78 901.74 870.23 897.66 857.68 891.45 845.13 883.85 832.59 875.79 820.04 868.23 807.49 862.1 794.94 858.13 782.39 856.8 769.84 858.27 757.29 862.37 744.74 868.6 732.19 876.2 719.65 884.27 707.1 891.81 694.55 897.93 682 901.89 669.45 903.19 656.9 901.7 644.35 897.58 631.8 891.34 619.25 883.72 606.71 875.66 594.16 868.12 581.61 862.02 569.06 858.08 556.51 856.8 543.96 858.32 531.41 862.45 518.86 868.71 506.31 876.33 493.77 884.39 481.22 891.93 468.67 898.02 456.12 901.93 443.57 903.19 431.02 901.65 418.47 897.5 405.92 891.22 393.37 883.6 380.83 875.53 368.28 868.01 355.73 861.93 343.18 858.04 330.63 856.8 318.08 858.36 305.53 862.54 292.98 868.82 280.43 876.46 267.89 884.52 255.34 892.04 242.79 898.1 230.24 901.97 217.69 903.19 205.14 901.6 192.59 897.41 180.04 891.11 167.49 883.47 154.95 875.41 142.4 867.9 129.85 861.85 117.3 858 104.75 856.8 92.2 858.41 79.65 862.62 67.1 868.94 54.55 876.59 42.01 884.65 29.46 892.15 16.91 898.18 -1.7 897.52 -6.75 882.89 -5.2 872.74 -3.27 862.59 -1.13 852.44 1.01 842.29 4.03 827.06 5.56 822 18.52 814.27 31.21 803.98 43.64 791.65 55.83 778.06 67.82 764.15 79.66 750.89 91.38 739.15 103.04 729.6 114.68 722.64 126.35 718.35 138.09 716.44 149.93 716.36 161.89 717.3 173.99 718.36 186.25 718.62 198.65 717.27 211.19 713.7 223.84 707.59 236.59 698.96 249.39 688.13 262.23 675.69 275.05 662.43 287.82 649.25 300.53 637.01 313.13 626.46 325.61 618.12 337.96 612.24 350.18 608.74 362.26 607.25 374.23 607.17 386.11 607.69 397.93 607.97 409.72 607.18 421.54 604.65 433.41 599.92 445.4 592.84 457.52 583.52 469.83 572.38 482.36 560.04 495.12 547.29 508.12 534.95 521.37 523.77 534.85 514.37 548.54 507.12 562.41 502.13 576.4 499.2 590.46 497.92 604.53 497.62 618.54 497.56 632.43 496.96 646.13 495.1 659.57 491.46 672.7 485.72 685.47 477.85 697.85 468.06 709.83 456.83 721.39 444.8 732.56 432.7 743.36 421.26 753.84 411.14 764.07 402.81 774.12 396.49 784.08 392.19 794.04 389.63 803.17 392.12 812.29 395.12 821.41 398.28 830.52 401.28 839.63 403.79 848.74 405.52 857.84 406.25 866.94 405.82 876.05 404.18 885.16 401.36 894.27 397.49 903.39 392.75 912.51 387.44 921.64 381.85 930.79 376.32 939.94 371.18 949.11 366.72 958.29 363.19 967.49 360.76 976.7 359.52 985.93 359.46 995.18 360.49 1004.46 362.44 1013.75 365.05 1023.07 368.03 1032.42 371.06 1041.79 373.8 1051.18 375.96 1060.61 377.26 1070.07 377.53 1079.56 376.65 1089.08 374.58 1098.63 371.4 1108.22 367.26 1117.84 362.37 1127.5 357.03 1137.19 351.54 1146.93 346.23 1156.7 341.41 1166.5 337.35 1176.35 334.27 1186.24 332.29 1196.17 331.49 1206.14 331.81 1216.15 333.13 1226.2 335.26 1236.29 337.94 1246.42 340.86 1256.6 343.7 1266.81 346.16 1277.07 347.94 1287.36 348.82 1297.7 348.63 1308.08 347.31 1318.49 344.85 1328.95 341.35 1339.44 336.99 1349.97 332.01 1360.54 326.69 1371.14 321.34 1381.78 316.29 1392.45 311.82 1403.15 308.17 1413.89 305.53" fill="url(#uuunion-grad3)" filter="url(#uuunion-blur2)"></path></svg>