<svg xmlns="http://www.w3.org/2000/svg" version="1.1" xmlns:xlink="http://www.w3.org/1999/xlink" xmlns:svgjs="http://svgjs.dev/svgjs" viewBox="0 0 800 800"><defs><linearGradient x1="50%" y1="0%" x2="50%" y2="100%" id="uundulate-grad"><stop stop-color="hsl(42, 100%, 47%)" stop-opacity="1" offset="45%"></stop><stop stop-color="hsl(200, 100%, 33%)" stop-opacity="1" offset="100%"></stop></linearGradient></defs><g stroke-width="2" stroke="url(#uundulate-grad)" fill="none"><path d="M664.792992907053 103.19054526811055C702.6203143177951 201.9734433121771 631.0768740469978 621.1407189395629 519.9843020191131 707.3959154328701C408.8917299912283 793.6511119261772 169.37596858394738 615.9983864800507 131.5486471732052 517.2154884359841C93.72132576246298 418.43259039191753 227.32058721966513 319.4932013146573 338.41315924754986 233.23800482135022C449.50573127543475 146.98280832804312 626.9656714963107 4.407647224043956 664.792992907053 103.19054526811055C702.6203143177951 201.9734433121771 631.0768740469978 621.1407189395629 519.9843020191131 707.3959154328701 "></path><path d="M652.7569477749141 116.68191741146347C688.864845485168 210.97468372625428 620.5733797721343 611.0889013705772 514.5304701091534 693.4234071141885C408.48756044617244 775.7579128578 179.85887910285885 606.1803112955884 143.75098139260496 511.88754498079743C107.64308368235106 417.5947786660066 235.16965143695307 323.1526345468037 341.21256109993396 240.81812880319228C447.2554707629149 158.48362305958096 616.6490500646603 22.389151096672606 652.7569477749141 116.68191741146347C688.864845485168 210.97468372625428 620.5733797721343 611.0889013705772 514.5304701091534 693.4234071141885 "></path><path d="M640.7208873839863 130.17322851966014C675.1093613937519 219.97586310517522 610.0698702384817 601.037022766435 509.0766229404046 679.4508377603507C408.0833756423276 757.8646527542663 190.34177436298125 596.3621750759694 155.95330035321564 506.5595404904544C121.56482634345002 416.75690590493934 243.01870039545196 326.81200674379363 344.011947693529 248.39819174987804C445.0051949916061 169.9843767559625 606.3324133742206 40.37059393414506 640.7208873839863 130.17322851966014C675.1093613937519 219.97586310517522 610.0698702384817 601.037022766435 509.0766229404046 679.4508377603507 "></path><path d="M628.6848422518475 143.66457014543494C661.3538925611249 228.97707300167428 599.5663759636182 590.9851746798711 503.6227910304449 665.478298924091C407.67920609727173 739.9714231683107 200.82468488189278 586.5440693739288 168.15563457261544 501.23156651768954C135.4865842633381 415.9190636614501 250.8677646127399 330.4714094583617 346.8113495459131 255.97828521414198C442.7549344790864 181.48516096992216 596.0157919425701 58.352067289195645 628.6848422518475 143.66457014543494C661.3538925611249 228.97707300167428 599.5663759636182 590.9851746798711 503.6227910304449 665.478298924091 "></path><path d="M616.6487971197087 157.1558812536316C647.5984237284978 237.97825238059522 589.0628816887547 580.9332960757291 498.1689591204853 651.5057295702532C407.27503655221585 722.0781630647772 211.30759540080425 576.72593315431 180.35796879201519 495.9035620273464C149.40834218322613 415.0811909003829 258.71682883002785 334.1307816553518 349.6107513982972 263.5583481608278C440.50467396656654 192.98591466630376 585.6991705109197 76.33351012666805 616.6487971197087 157.1558812536316C647.5984237284978 237.97825238059522 589.0628816887547 580.9332960757291 498.1689591204853 651.5057295702532 "></path><path d="M604.6127367287809 170.6472839145627C633.8429396370817 246.97952331225048 578.559372155102 570.8815090243214 492.7151119517366 637.5332517691497C406.870851748371 704.1849945139779 221.79049066092665 566.9078884874257 192.56028775262587 490.5756490897379C163.33008484432509 414.24340969205 266.56587778852673 337.7902454050761 352.41013799189227 271.1385026602479C438.25439819525775 204.48675991541967 575.3825338204801 94.31504451687488 604.6127367287809 170.6472839145627C633.8429396370817 246.97952331225048 578.559372155102 570.8815090243214 492.7151119517366 637.5332517691497 "></path><path d="M592.5766915966421 184.13859502275938C620.0874708044546 255.98070269117142 568.0558778802385 560.8296304201792 487.2612800417769 623.5606824153118C406.46668220331514 686.2917344104442 232.27340117983817 557.0897522678068 204.76262197202567 485.2476445993948C177.25184276421317 413.40553693098263 274.4149420058147 341.44961760206616 355.2095398442764 278.7185656069337C436.004137682738 215.98751361180126 565.0659123888297 112.29648735434728 592.5766915966421 184.13859502275938C620.0874708044546 255.98070269117142 568.0558778802385 560.8296304201792 487.2612800417769 623.5606824153118 "></path><path d="M580.5406464645034 197.62990613095604C606.3320019718276 264.98188207009235 557.552383605375 550.7777518160373 481.8074481318172 609.5881130614739C406.0625126582594 668.3984743069107 242.75631169874964 547.271616048188 216.96495619142541 479.91964010905167C191.1736006841012 412.5676641699155 282.2640062231026 345.1089897990562 358.0089416966605 286.2986285536195C433.7538771702183 227.4882673081828 554.7492909571791 130.27793019181973 580.5406464645034 197.62990613095604C606.3320019718276 264.98188207009235 557.552383605375 550.7777518160373 481.8074481318172 609.5881130614739 "></path><path d="M568.5046318499427 211.1212630155199C592.5765636567787 273.9831072253805 547.0489198480896 540.7259189882624 476.3536467394356 595.6155894840033C405.6583736307816 650.5052599797442 253.23925273523923 537.4535256049364 229.16732092840329 474.59168139507597C205.09538912156734 411.7298371852154 290.1131009579687 348.76840777241335 360.80837406662266 293.8787372766725C431.5036471752767 238.98906678093158 544.4327000431068 148.25941880565938 568.5046318499427 211.1212630155199C592.5765636567787 273.9831072253805 547.0489198480896 540.7259189882624 476.3536467394356 595.6155894840033 "></path><path d="M556.468586717804 224.61261990008376C578.8210948241517 282.98433238066855 536.545425573226 530.6740861604875 470.8998148294759 581.6430659065327C405.25420408572586 632.6120456525778 263.7221632541507 527.6354351616849 241.3696551478031 469.26372268110003C219.01714704145542 410.8920102005152 297.96216517525664 352.4278257457705 363.60777591900677 301.45884599972544C429.25338666275684 250.4898662536803 534.1160786114563 166.24090741949897 556.468586717804 224.61261990008376C578.8210948241517 282.98433238066855 536.545425573226 530.6740861604875 470.8998148294759 581.6430659065327 "></path><path d="M544.4325415856651 238.10393100828048C565.0656259915245 291.9855117595895 526.0419312983624 520.6222075563455 465.44598291951627 567.6704965526948C404.85003454067 614.7187855490441 274.2050737730622 517.8172989420661 253.57198936720283 463.93571819075703C232.93890496134344 410.0541374394479 305.8112293925446 356.08719794276055 366.4071777713909 309.0389089464112C427.0031261502371 261.9906199500619 523.7994571798058 184.22235025697142 544.4325415856651 238.10393100828048C565.0656259915245 291.9855117595895 526.0419312983624 520.6222075563455 465.44598291951627 567.6704965526948 "></path><path d="M532.3964964535264 251.59528789284434C551.3101571588975 300.9867369148776 515.5384370234989 510.5703747285705 459.99215100955655 553.697972975224C404.44586499561416 596.8255712218777 284.6879842919737 507.99920849881437 265.7743235866026 458.6077594767811C246.86066288123152 409.2163104547478 313.6602936098326 359.7466159161177 369.2065796237749 316.61901766946414C424.7528656377174 273.4914194228106 513.4828357481554 202.20383887081107 532.3964964535264 251.59528789284434C551.3101571588975 300.9867369148776 515.5384370234989 510.5703747285705 459.99215100955655 553.697972975224 "></path><path d="M520.3604513213877 265.08658374225195C537.5546883262705 309.9879010350095 505.03494274863533 500.5184808656394 454.53831909959683 539.7253883625972C404.04169545055834 578.9322958595551 295.17089481088516 498.18105702040657 277.9766578060024 453.27973972764903C260.78242080111954 408.37842243489155 321.50935782712054 363.4059728543187 372.00598147615904 324.1990653573609C422.5026051251976 284.99215786040315 503.1662143165048 220.1852664494944 520.3604513213877 265.08658374225195C537.5546883262705 309.9879010350095 505.03494274863533 500.5184808656394 454.53831909959683 539.7253883625972 "></path><path d="M508.32440618924886 278.57795588560487C523.7992194936435 318.9891414490867 494.5314484737719 490.4666632966537 449.0844871896372 525.7528800439156C403.63752590550246 561.0390967911776 305.6538053297967 488.3629818359441 290.1789920254021 447.9517962724623C274.70417872100757 407.5406107089805 329.3584220444085 367.065406086465 374.80538332854314 331.77918933920296C420.2523446126778 296.49297259194094 492.84959288485436 238.1667703221231 508.32440618924886 278.57795588560487C523.7992194936435 318.9891414490867 494.5314484737719 490.4666632966537 449.0844871896372 525.7528800439156 "></path><path d="M496.28836105711014 292.0692822525906C510.04375066101636 327.9903360867967 484.02795419890833 480.41479995130055 443.6306552796775 511.7803259488669C403.23335636044663 543.145851946433 316.13671584870815 478.5448608751144 302.38132624480187 442.62380704090833C288.62593664089565 406.70275320670225 337.20748626169643 370.724793542244 377.60478518092725 339.3592675446778C418.0020841001581 307.99374154711154 482.5329714532039 256.1482284183846 496.28836105711014 292.0692822525906C510.04375066101636 327.9903360867967 484.02795419890833 480.41479995130055 443.6306552796775 511.7803259488669 "></path><path d="M484.2523159249713 305.56062387836545C496.28828182838936 336.9915459832957 473.5244599240448 470.3629518647367 438.1768233697178 497.8077871126071C402.8291868153908 525.2526223604775 326.6196263676196 468.7267551730737 314.58366046420167 437.29583306814345C302.54769456078367 405.86491096321316 345.0565504789844 374.3841962568122 380.40418703331136 346.9393610089417C415.75182358763834 319.49452576107126 472.2163500215534 274.12970177343516 484.2523159249713 305.56062387836545C496.28828182838936 336.9915459832957 473.5244599240448 470.3629518647367 438.1768233697178 497.8077871126071 "></path><path d="M472.2162707928326 319.0519807629293C482.53281299576224 345.9927711385838 463.0209656491812 460.3111190369618 432.72299145975813 483.8352635351364C402.425017270335 507.3594080333112 337.1025368865311 458.90866472982214 326.7859946836014 431.9678743541676C316.46945248067175 405.027083978513 352.9056146962723 378.04361423016934 383.2035888856954 354.51946973199466C413.50156307511855 330.99532523382 461.8997285899029 292.11119038727475 472.2162707928326 319.0519807629293C482.53281299576224 345.9927711385838 463.0209656491812 460.3111190369618 432.72299145975813 483.8352635351364 "></path><path d="M460.1802104019048 332.543291871126C468.7773289043462 354.99395051750474 452.5174561155286 450.2592404328197 427.26914429100935 469.8626941812986C402.0208324664901 489.46614792977755 347.58543214665355 449.0905285102033 338.9883136442121 426.6398698638245C330.3911951417707 404.18921121744575 360.7546636547712 381.7029864271593 386.00297547929046 362.0995326786805C411.2512873038097 342.4960789302016 451.58309189946334 310.0926332247472 460.1802104019048 332.543291871126C468.7773289043462 354.99395051750474 452.5174561155286 450.2592404328197 427.26914429100935 469.8626941812986 "></path><path d="M448.144165269766 346.03464875568983C455.0218600717191 363.99517567279287 442.0139618406651 440.2074076050448 421.8153123810497 455.890170603828C401.6166629214343 471.57293360261104 358.068342665565 439.27243806695174 351.1906478636119 421.3119111498487C344.31295306165873 403.35138423274566 368.60372787205915 385.36240440051654 388.80237733167456 369.6796414017334C409.00102679129 353.9968784029503 441.2664704678129 328.07412183858685 448.144165269766 346.03464875568983C455.0218600717191 363.99517567279287 442.0139618406651 440.2074076050448 421.8153123810497 455.890170603828 "></path><path d="M436.1081353964163 359.5259903814646C441.2664064978811 372.99638556929193 431.5104828245906 430.1555595184809 416.36149572987904 441.9176317675682C401.2125086351675 453.6797040166556 368.55126844326554 429.45433236491107 363.3929973418007 415.9839371770838C358.2347262403359 402.5135419892565 376.45280734813616 389.0218071150847 391.60179444284773 377.25973486599736C406.7507815375593 365.49766261691 430.94986429495145 346.0555951936374 436.1081353964163 359.5259903814646C441.2664064978811 372.99638556929193 431.5104828245906 430.1555595184809 416.36149572987904 441.9176317675682 "></path><path d="M424.07209026427756 373.0173320072395C427.5109376652541 381.99759546579094 421.00698854972705 420.10371143191696 410.9076638199194 427.9450929313085C400.80833909011164 435.7864744307001 379.034178962177 419.6362266628704 375.59533156120045 410.6559632043189C372.1564841602239 401.67569974576736 384.3018715654241 392.6812098296528 394.4011962952318 384.83982833026124C404.5005210250395 376.9984468308697 420.633242863301 364.03706854868796 424.07209026427756 373.0173320072395C427.5109376652541 381.99759546579094 421.00698854972705 420.10371143191696 410.9076638199194 427.9450929313085 "></path><path d="M412.0360451321388 386.50867363301427C413.75546883262706 390.99880536229 410.50349427486356 410.051863345353 405.45383190995966 413.9725540950488C400.4041695450558 417.8932448447446 389.51708948108853 409.81812096082973 387.79766578060025 405.32798923155394C386.078242080112 400.8378575022782 392.15093578271205 396.3406125442209 397.2005981476159 392.4199217945252C402.2502605125198 388.4992310448294 410.3166214316505 382.0185419037385 412.0360451321388 386.50867363301427C413.75546883262706 390.99880536229 410.50349427486356 410.051863345353 405.45383190995966 413.9725540950488 "></path></g></svg>