<svg xmlns="http://www.w3.org/2000/svg" viewBox="0 0 392 400">
<path fill="#012169" d="M302.2,3L95,3l-8.5,9c-0.1,6.5-0.2,14.6-0.3,18.6C85.3,94,89.6,192.6,192.8,240.4
	c54.6-25.3,95.9-68.8,106.8-136.2C306,65.1,302.2,28,302.2,3L302.2,3z"/>
<path fill="#fff" d="M193.3,235.6C78.9,182.7,92.6,64.5,92.7,9.3l202.5,0.2C295.1,64.8,307.8,183,193.3,235.6z M92.7,0.2l-8.7,9.2
	c-0.1,6.6-0.2,14.9-0.3,19c-0.8,64.9,3.6,165.9,109.2,214.7c55.9-25.9,98.2-70.4,109.3-139.4c6.5-40,2.6-77.9,2.6-103.4L92.7,0.2z"
	/>
<path fill="#fff" d="M150.1,145.3l-18.8,20.1c-0.6,0.7-0.7,1.4-0.3,1.8c0.5,0.6,1,1.1,1.6,1.5c0.5,0.1,0.9,0.3,1.7-0.6
	c0.4-0.4,9.3-9,19.8-19.1c-0.7-0.4-1.4-0.8-2-1.4C151.4,146.8,150.7,146.1,150.1,145.3z M155.5,143c1.7,1.5,3.5,2.8,5.4,3.9
	l-1.9,1.8c-0.7,0.8-3.3-0.4-5.8-2.7s-4-4.7-3.3-5.5l2.1-1.9C153,140.2,154.2,141.7,155.5,143z M248,165.3c0.9-0.8,1.6-2,1.8-3.2
	l1.8,0.9c0.5,0.6,0.1,2.7-1.6,4.4s-4,2.2-4.6,1.6l-1-2C245.8,166.9,247,166.3,248,165.3z M245.2,162.3c0.7-0.6,1.2-1.4,1.5-2.3
	l1.2,0.8c0.4,0.4,0,1.8-1.2,3s-2.9,1.6-3.3,1.2l-0.7-1.3C243.6,163.4,244.4,163,245.2,162.3z M250.8,69.9l-2.1,1.9
	c-2.9,1.1-9.6-4-14.9-8.6c-3.5-3.1-10.6-10.9-8.6-14l0.9-0.9c-0.6-0.4-1.2-0.7-1.6-0.9c-0.7-0.4-1.5-0.5-2.3-0.4
	c-0.8,0.1-1.5,0.5-1.6,1.1c-0.1,1.4,0.7,3.3,1.8,5.5s5.5,8.6,14.3,15.7c3.6,2.8,7.7,4.9,12,6.4c0.6,0.2,2.7,0.7,3.6-0.2
	s-0.1-2.5-0.8-4.1C251.4,70.8,251.1,70.3,250.8,69.9z M244.6,159.1c-3.3-3.9-29.5-34.6-33.5-39.3c-4.3-5.1-31-36.9-39.9-48
	C161,59,159.1,41.2,159,39.1v-2.1c0-0.2-0.6-0.2-0.7,0.1c-0.5,1-3.6,7.5-13.3,16.7c-5.8,5.5-12.5,10-19.8,13.4
	c-0.2,0.1-0.3,0.3-0.2,0.4c0.4,0.3,7,0.6,7,0.6c9.1,0.8,12.9,3.8,21.3,9.1c9.6,6.2,32.9,28.8,37.4,33s49.7,49.6,50.7,50.7
	c0.1,0.1,0.7,0.7,0.8,0.8c0.6-0.1,1.2-0.3,1.7-0.7c0.5-0.4,0.9-0.9,1.1-1.5L244.6,159.1z M240.2,157.8c0,0-25-25.4-40.8-41.8
	c-31.2-32.3-45.5-42.2-53.2-46.3c-4.3-2.3-9.1-3.4-9.8-3.7s-0.8-0.9,0.4-2c1.9-1.5,4.1-2.6,6.3-3.4c0.6-0.2,2.8,0.5,5,1.4
	c4.2,1.8,7.8,4,17.2,13.3c3.2,3.2,6.7,6.8,10.7,11.1c28.4,30.1,64.7,70.9,64.7,70.9L240.2,157.8z"/>
<path fill="#fff" d="M154.8,28.9c-1.2-0.1-3.9,0.9-6.7,2.5c-9.5,5.4-17.9,12.7-24.7,21.3c-1.5,1.9-2.8,4-3.9,6.1
	c-2.9,5.5,1.1,6.9,4,5.7c5-2.1,9.7-5,13.9-8.5c11.6-9.8,18.5-19,19.4-23.1C157.3,31,157.1,29.1,154.8,28.9z M153.4,34.7
	c-1.4,2.7-3.1,5.2-5.1,7.5c-2.5,3-5.2,5.8-8,8.5c-0.2,0.1-0.7,0.1-0.5-0.5c1.8-4.4-0.9-7.3-0.6-8.3c0.3-1.2,0.9-2.3,1.6-3.3
	c3.6-3.4,11.8-7,12.1-6.7s0.9,0.4,0.9,1C153.9,33.4,153.7,34.1,153.4,34.7z M189.9,112.8c-1.9,1.8-31.3,30-31.3,30
	c0.4,0.4,1.7,1.3,1.7,1.3s27-26,29-27.8c0.6-0.5,1.7-1.6,2.2-2L189.9,112.8z M245.4,77.9l1.2-0.1c0.4,0,0.8-0.1,1.1-0.2
	c0.2-0.2,0.4-0.5-0.1-0.5c-2.4-0.3-4.6-1-6.7-2.1c-2.7,0.7-5.3,1.6-7.9,2.7c-4.2,1.9-13.6,7.5-32.6,24.9l1.5,1.7
	c6.6-6,15.4-13.8,20.2-16.9c8.5-5.6,14.7-8,18.8-9C242.4,78.3,243.9,78.1,245.4,77.9z"/>
	<path fill="#fff" d="M226.9,64.1c-5.2-5.4-6.9-9.3-7.7-12.2c0-0.1-0.1-0.2-0.1-0.3c-0.1-0.1-0.2,0-0.3,0.1c0,0,0,0,0,0.1
		c0,0.1-0.1,0.2-0.1,0.4c-0.5,5.6,0.1,8-2.3,13.7c-2.6,6-6,11.5-10.3,16.5c-2.8,3.2-7.5,8.5-11.8,13.5l3,3.6
		c0.3-0.3,1.3-1.4,2.4-2.5c9.7-10.4,20.3-20,31.7-28.5C229.8,67,228.3,65.6,226.9,64.1z M183.8,107.2c-6.1,6.9-12.3,13.7-14.1,15.7
		c-1.5,1.7-14.9,16.1-14.9,16.1c0.2,0.4,0.5,0.7,0.7,1c0.4,0.5,1.1,1.1,1.1,1.1s28.1-28.8,30.2-31.1L183.8,107.2z"/>
<path fill="#fff" d="M232,45v-0.6c-1.5-0.4-2.6-0.3-3.2,0.3c-1.8,2,2.2,8.8,9.1,15.1s13.9,9.9,15.8,7.9c0.7-0.8,0.5-2.4-0.5-4.4
	C243.3,64.5,232,51.4,232,45L232,45z"/>
<path fill="#fff" d="M263,47.6c-1,1.1-2.6,3.7-3.6,4.6c1.1-1,1.7-3.3,0.5-9.3c-0.4-2.4-1-4.7-1.9-7c-0.3-0.8-0.8-0.6-1.4,0
	c-0.7,0.9-1.3,1.9-1.9,2.9c-0.1,0.5,0,0-2-6.1c-1.2-3.9-1.8-6.6-1.7-8c0-0.7,0.1-1.5,0.1-2s-0.2-0.5-1.5,0.1
	c-3.6,2.3-6.4,5.6-8.1,9.5c-1.3,3.2-1.4,5.8-1.6,4.2c-0.4-3.1-0.3-3.1-0.6-3c-1.7,0.6-7.8,3.3-7.8,11.6c0,7,13.2,21.9,23.9,18.5
	c0,0,8.1-1.5,8.3-8.9C263.8,47.3,263,47.6,263,47.6z M260.3,56.7c-1,1.6-2.5,2.9-4.2,3.7c-2.4,1-5.1,1.3-7.7,0.8
	c-7.9-2.5-12.6-10.5-12.6-10.5c-6.2-10.1,2.1-14.4,2.8-14.5c-0.5,1.8-0.6,3.7-0.3,5.5c0.5,2,1.7,3.6,2.1,4.7
	c0.5,1.5,0.2,3.2-0.8,4.5c-0.3,0.4,0.4,0.2,0.6,0.1c0.2-0.1,0.3-0.3,0.5-0.4c1.1-0.9,2.2-2.2,1.9-3.6c-0.7-3.1-3-5-0.3-11.5
	c1.4-3,3.3-5.7,5.7-8c0.6-0.4,1-0.9,1-0.5s0.7,3.3,1,5.2c0.3,1.9,2.5,5.7,2,11s-9.1,11.1-10.3,11.4c-0.4,0.1-0.8,0.4-1.1,0.6
	c-0.3,0.3,0.1,0.4,0.3,0.4c2.5-0.4,5-1.4,7.1-2.8c2.2-1.6,4.2-3.5,5.6-5.8c1.1-2.3,1.9-4.7,2.4-7.1c0.2-0.6,0.5-0.6,0.6-0.3
	c0.1,0.3,0.7,2.6,0.9,3.8c0.3,1.5,0.5,3,0.5,4.5c0,4-1.1,5.8-3.5,7.6c-1.3,0.9-2.8,1.5-4.4,1.5l-0.6,0.1c-0.2,0-0.4,0.1,0.1,0.3
	c0.1,0.1,0.3,0.1,0.6,0.2c1.9,0.7,4.1,0.4,5.9-0.6c1.3-0.8,2.4-1.7,3.5-2.8c0.6-0.5,1.3-1.5,1.4-1.2C261,54.3,260.8,55.5,260.3,56.7
	L260.3,56.7z"/>
	<path fill="#fff" d="M208.8,318.9c22.8,0,37.2,20.7,37.2,42c0,21.6-13.7,35.3-30.8,35.3c-23.2,0-37.3-20.9-37.3-42.6
		C177.9,335.2,189.1,318.9,208.8,318.9z M210.3,399.8c26.1,0,44.2-17,44.2-43.3c0-24.2-18.3-41.4-42.2-41.4s-42.9,17.7-42.9,42
		C169.4,381.7,184.9,399.8,210.3,399.8L210.3,399.8z M278.1,324.2c0-4.4,2.4-4.2,6.5-4.2c11.1,0,21.7,4.7,21.7,18.5
		c0,13.8-10.9,16.1-15.8,16.1c-5.3,0-12.4,0.6-12.4-1.6L278.1,324.2z M300.5,355.5c8-3.2,14.3-10.8,14.3-19.6
		c0-21.9-25.2-19.7-27-19.7c-5.9,0-12.4,0.5-18.9,0.5c-2.4,0-4.8-0.2-7.3-0.5c-1.3,0-2.2,0.7-2.2,1.4c0,3.9,9.7-0.8,9.7,10.1v57.8
		c0,8.6-8.3,7.1-8.3,9.9c0,0.6,0.4,1.2,1.1,1.3c0,0,0,0,0.1,0c4.3,0,8.6-0.5,12.9-0.5c9.4,0,12,0.5,13,0.5c1,0,1.9,0.2,1.9-0.9
		c0-3.9-11.8-0.3-11.8-10.1v-24c0-1.1-0.7-3.2,3-3.2c12.7,0,11-0.3,15.1,6l12.6,19.9c4.3,6.5,8.8,12.3,17,12.3c1,0,10.1,0,10.1-1.4
		c0-2.7-8.2,1.5-16.4-11L300.5,355.5z M333.6,323.4c-2.9-4.9-8.5-3.5-8.5-5.5c0-0.9,0.6-1.6,1.5-1.7c3.1,0,5.2,0.5,12.9,0.5
		c3.7,0,6.8-0.5,7.9-0.5c0.8,0,2.2,0.1,2.2,1.1c0,1.9-5.3,2-5.3,5.3c0.2,1.7,0.9,3.3,2,4.7l13.7,21.9c0.9,1.4,1.6,2,2.2,2
		s1.2-0.8,2.1-2.3l11.8-19c1.4-1.8,2.3-4,2.4-6.2c0-5.6-8.5-3.2-8.5-5.9c0-1.5,1.1-1.7,2.4-1.7c2.7,0,5.5,0.5,8.3,0.5
		c3.4,0,6.6-0.5,9.9-0.5c0.7,0.1,1.2,0.7,1.2,1.4c0,1.3-1.9,1.7-2.7,2.2c-3.1,1.8-4.5,5-6.4,7.8l-15.9,24.8c-1.8,2.9-2.7,3.4-2.7,5
		v28c0,9.9,9.3,6.7,9.3,10.2c0,1-1,1.1-2.6,1.1s-8.3-0.5-12.4-0.5c-5,0-9.2,0.5-10.2,0.5c-1,0-1.7-0.1-1.7-1.4
		c0-3.2,8.7-0.2,8.7-8.3v-27.6c0-2.1-1.7-4.4-2.6-5.8L333.6,323.4z M156.4,386.2c0.6,9.5,9,5.3,9,9.3c0,1.1-1.5,1.1-2.7,1.1
		c-2.2,0-6.1-0.5-10.6-0.5c-3.5,0-7.1,0.5-9.8,0.5c-1,0-1.3-0.6-1.3-1c0-3.4,7.2-0.9,7-9.3l-3.1-44c0-2.8-0.6-4.4-1.2-4.4
		s-1.8,1-3,3.4l-23.5,47.9c-0.6,1-2.4,5.7-3.5,5.7s-1.9-2.5-2.3-3.4l-24.2-50.5c-0.3-0.9-0.9-1.2-1.4-1.2c-0.5,0-0.7,0.6-0.8,1.7
		l-3.4,39.8c-0.6,15.1,10.2,10.1,10.2,14.2c0,1.1-1.2,1.3-2.8,1.3s-6.6-0.5-9.9-0.5c-5.9,0-7.8,0.5-10.1,0.5c-0.8,0-1.1-0.6-1.1-1.4
		c0-3.9,7.3,0.8,8.1-11c1.4-18.5,2.7-30.6,2.7-42.6c0-26.7-8.8-20.3-8.8-24.2c0-1,0.9-1.3,1.9-1.3c2,0,4.1,0.5,6.2,0.5
		s4-0.5,6.1-0.5c1.7,0,1.8,1.9,2.4,3.2l27.1,57.7c1.2,2.4,1.7,3.4,2.5,3.4s1.7-2.4,3.5-6.1l27.1-54.3c0.7-1.3,1.6-4,2.9-3.9
		s4.7,0.5,5.3,0.5c2.6,0,3.6-0.5,5.5-0.5c0.7,0.1,1.2,0.7,1.1,1.4c0,3.6-9.1-1.2-8.6,12.3L156.4,386.2z M18.5,349.4
		c0,3.9-0.2,3.9,4.3,3.9H35c11.8,0,8.7-9.1,11.4-9.1c0.9,0,1.2,1.3,1.2,2.2c0,4-0.2,7.8-0.2,11.4c0,3,0.2,5.9,0.2,9
		c0,1-0.4,1.5-1.2,1.5c-3.5,0,0.3-10.1-9.2-10.1H20.5c-2.4,0-2,1.9-2,3.6v20.9c0,6.7-0.9,9.4,8.6,9.4c26.1,0,30-11.8,31.5-11.8
		c0.8,0,0.9,1.1,0.9,1.4c0,4.1-2.9,8.1-5.7,11c-3.6,4.1-6.1,3.9-11.1,3.9c-8.6,0-17.2-0.7-25.8-0.5c-4.5,0.1-9.3,0.5-13.8,0.5
		c-1,0-1.7-0.2-1.7-1.1c0.2-1.4,1.3-1.1,5-3c2.9-1.4,3.2-4.5,3.2-9.9v-51.7c0-5.1,0-10.6-6.1-11.5c-0.9-0.2-3.4-0.5-3.4-1.7
		c0-0.9,0.7-1.4,4-1.4c21.4,0,27.2,0.5,32,0.5c2.3,0,12.7-0.5,16.2-0.5c0.9,0,1.1,1.1,1.1,2.5c0,12.6-1.6,13.5-2.3,13.5
		c-2.7,0-0.9-5.5-2.7-8.1c-2.9-3.9-14.7-3.2-19.2-3.2c-10.9,0-10.6-0.5-10.6,7.2L18.5,349.4z"/>
</svg>
